<?xml version="1.0" encoding="UTF-8"?>
<svg xmlns="http://www.w3.org/2000/svg" xmlns:xlink="http://www.w3.org/1999/xlink" width="342pt" height="56pt" viewBox="0 0 342 56" version="1.1">
<g id="surface1">
<path style="fill:none;stroke-width:0.3985;stroke-linecap:butt;stroke-linejoin:miter;stroke:rgb(0%,0%,0%);stroke-opacity:1;stroke-miterlimit:10;" d="M 11.3375 11.339953 L 11.3375 22.675323 L 22.677344 22.675323 L 22.677344 11.339953 Z M 11.3375 11.339953 " transform="matrix(1,0,0,-1.00005,148.1,62.016301)"/>
<path style="fill:none;stroke-width:0.3985;stroke-linecap:butt;stroke-linejoin:miter;stroke:rgb(0%,0%,0%);stroke-opacity:1;stroke-miterlimit:10;" d="M 22.677344 11.339953 L 22.677344 22.675323 L 34.017188 22.675323 L 34.017188 11.339953 Z M 22.677344 11.339953 " transform="matrix(1,0,0,-1.00005,148.1,62.016301)"/>
<path style="fill:none;stroke-width:0.3985;stroke-linecap:butt;stroke-linejoin:miter;stroke:rgb(0%,0%,0%);stroke-opacity:1;stroke-miterlimit:10;" d="M 11.3375 22.675323 L 11.3375 34.0146 L 22.677344 34.0146 L 22.677344 22.675323 Z M 11.3375 22.675323 " transform="matrix(1,0,0,-1.00005,148.1,62.016301)"/>
<path style="fill:none;stroke-width:0.3985;stroke-linecap:butt;stroke-linejoin:miter;stroke:rgb(0%,0%,0%);stroke-opacity:1;stroke-miterlimit:10;" d="M 22.677344 22.675323 L 22.677344 34.0146 L 34.017188 34.0146 L 34.017188 22.675323 Z M 22.677344 22.675323 " transform="matrix(1,0,0,-1.00005,148.1,62.016301)"/>
<path style="fill:none;stroke-width:0.3985;stroke-linecap:butt;stroke-linejoin:miter;stroke:rgb(0%,0%,0%);stroke-opacity:1;stroke-miterlimit:10;" d="M 11.3375 34.0146 L 11.3375 45.353877 L 22.677344 45.353877 L 22.677344 34.0146 Z M 11.3375 34.0146 " transform="matrix(1,0,0,-1.00005,148.1,62.016301)"/>
<path style="fill:none;stroke-width:0.3985;stroke-linecap:butt;stroke-linejoin:miter;stroke:rgb(0%,0%,0%);stroke-opacity:1;stroke-miterlimit:10;" d="M 11.3375 45.353877 L 11.3375 56.693154 L 22.677344 56.693154 L 22.677344 45.353877 Z M 11.3375 45.353877 " transform="matrix(1,0,0,-1.00005,148.1,62.016301)"/>
<path style="fill:none;stroke-width:0.3985;stroke-linecap:butt;stroke-linejoin:miter;stroke:rgb(97.499084%,97.499084%,97.499084%);stroke-opacity:1;stroke-miterlimit:10;" d="M -146.689844 7.820597 L 192.044531 7.820597 L 192.044531 60.216415 L -146.689844 60.216415 Z M -146.689844 7.820597 " transform="matrix(1,0,0,-1.00005,148.1,62.016301)"/>
</g>
</svg>
