<?xml version="1.0" encoding="UTF-8"?>
<svg xmlns="http://www.w3.org/2000/svg" xmlns:xlink="http://www.w3.org/1999/xlink" width="342pt" height="78pt" viewBox="0 0 342 78" version="1.1">
<g id="surface1">
<path style="fill:none;stroke-width:0.3985;stroke-linecap:butt;stroke-linejoin:miter;stroke:rgb(0%,0%,0%);stroke-opacity:1;stroke-miterlimit:10;" d="M 11.338687 11.339399 L 11.338687 22.678676 L 22.678531 22.678676 L 22.678531 11.339399 Z M 11.338687 11.339399 " transform="matrix(1,0,0,-1.00005,131.091,84.695435)"/>
<path style="fill:none;stroke-width:0.3985;stroke-linecap:butt;stroke-linejoin:miter;stroke:rgb(0%,0%,0%);stroke-opacity:1;stroke-miterlimit:10;" d="M 22.678531 11.339399 L 22.678531 22.678676 L 34.014469 22.678676 L 34.014469 11.339399 Z M 22.678531 11.339399 " transform="matrix(1,0,0,-1.00005,131.091,84.695435)"/>
<path style="fill:none;stroke-width:0.3985;stroke-linecap:butt;stroke-linejoin:miter;stroke:rgb(0%,0%,0%);stroke-opacity:1;stroke-miterlimit:10;" d="M 34.014469 11.339399 L 34.014469 22.678676 L 45.354312 22.678676 L 45.354312 11.339399 Z M 34.014469 11.339399 " transform="matrix(1,0,0,-1.00005,131.091,84.695435)"/>
<path style="fill:none;stroke-width:0.3985;stroke-linecap:butt;stroke-linejoin:miter;stroke:rgb(0%,0%,0%);stroke-opacity:1;stroke-miterlimit:10;" d="M 45.354312 11.339399 L 45.354312 22.678676 L 56.694156 22.678676 L 56.694156 11.339399 Z M 45.354312 11.339399 " transform="matrix(1,0,0,-1.00005,131.091,84.695435)"/>
<path style="fill:none;stroke-width:0.3985;stroke-linecap:butt;stroke-linejoin:miter;stroke:rgb(0%,0%,0%);stroke-opacity:1;stroke-miterlimit:10;" d="M 56.694156 11.339399 L 56.694156 22.678676 L 68.030094 22.678676 L 68.030094 11.339399 Z M 56.694156 11.339399 " transform="matrix(1,0,0,-1.00005,131.091,84.695435)"/>
<path style="fill:none;stroke-width:0.3985;stroke-linecap:butt;stroke-linejoin:miter;stroke:rgb(0%,0%,0%);stroke-opacity:1;stroke-miterlimit:10;" d="M 11.338687 22.678676 L 11.338687 34.014047 L 22.678531 34.014047 L 22.678531 22.678676 Z M 11.338687 22.678676 " transform="matrix(1,0,0,-1.00005,131.091,84.695435)"/>
<path style="fill:none;stroke-width:0.3985;stroke-linecap:butt;stroke-linejoin:miter;stroke:rgb(0%,0%,0%);stroke-opacity:1;stroke-miterlimit:10;" d="M 22.678531 22.678676 L 22.678531 34.014047 L 34.014469 34.014047 L 34.014469 22.678676 Z M 22.678531 22.678676 " transform="matrix(1,0,0,-1.00005,131.091,84.695435)"/>
<path style="fill:none;stroke-width:0.3985;stroke-linecap:butt;stroke-linejoin:miter;stroke:rgb(0%,0%,0%);stroke-opacity:1;stroke-miterlimit:10;" d="M 34.014469 22.678676 L 34.014469 34.014047 L 45.354312 34.014047 L 45.354312 22.678676 Z M 34.014469 22.678676 " transform="matrix(1,0,0,-1.00005,131.091,84.695435)"/>
<path style="fill:none;stroke-width:0.3985;stroke-linecap:butt;stroke-linejoin:miter;stroke:rgb(0%,0%,0%);stroke-opacity:1;stroke-miterlimit:10;" d="M 45.354312 22.678676 L 45.354312 34.014047 L 56.694156 34.014047 L 56.694156 22.678676 Z M 45.354312 22.678676 " transform="matrix(1,0,0,-1.00005,131.091,84.695435)"/>
<path style="fill:none;stroke-width:0.3985;stroke-linecap:butt;stroke-linejoin:miter;stroke:rgb(0%,0%,0%);stroke-opacity:1;stroke-miterlimit:10;" d="M 11.338687 34.014047 L 11.338687 45.353323 L 22.678531 45.353323 L 22.678531 34.014047 Z M 11.338687 34.014047 " transform="matrix(1,0,0,-1.00005,131.091,84.695435)"/>
<path style="fill:none;stroke-width:0.3985;stroke-linecap:butt;stroke-linejoin:miter;stroke:rgb(0%,0%,0%);stroke-opacity:1;stroke-miterlimit:10;" d="M 22.678531 34.014047 L 22.678531 45.353323 L 34.014469 45.353323 L 34.014469 34.014047 Z M 22.678531 34.014047 " transform="matrix(1,0,0,-1.00005,131.091,84.695435)"/>
<path style="fill:none;stroke-width:0.3985;stroke-linecap:butt;stroke-linejoin:miter;stroke:rgb(0%,0%,0%);stroke-opacity:1;stroke-miterlimit:10;" d="M 34.014469 34.014047 L 34.014469 45.353323 L 45.354312 45.353323 L 45.354312 34.014047 Z M 34.014469 34.014047 " transform="matrix(1,0,0,-1.00005,131.091,84.695435)"/>
<path style="fill:none;stroke-width:0.3985;stroke-linecap:butt;stroke-linejoin:miter;stroke:rgb(0%,0%,0%);stroke-opacity:1;stroke-miterlimit:10;" d="M 45.354312 34.014047 L 45.354312 45.353323 L 56.694156 45.353323 L 56.694156 34.014047 Z M 45.354312 34.014047 " transform="matrix(1,0,0,-1.00005,131.091,84.695435)"/>
<path style="fill:none;stroke-width:0.3985;stroke-linecap:butt;stroke-linejoin:miter;stroke:rgb(0%,0%,0%);stroke-opacity:1;stroke-miterlimit:10;" d="M 11.338687 45.353323 L 11.338687 56.6926 L 22.678531 56.6926 L 22.678531 45.353323 Z M 11.338687 45.353323 " transform="matrix(1,0,0,-1.00005,131.091,84.695435)"/>
<path style="fill:none;stroke-width:0.3985;stroke-linecap:butt;stroke-linejoin:miter;stroke:rgb(0%,0%,0%);stroke-opacity:1;stroke-miterlimit:10;" d="M 22.678531 45.353323 L 22.678531 56.6926 L 34.014469 56.6926 L 34.014469 45.353323 Z M 22.678531 45.353323 " transform="matrix(1,0,0,-1.00005,131.091,84.695435)"/>
<path style="fill:none;stroke-width:0.3985;stroke-linecap:butt;stroke-linejoin:miter;stroke:rgb(0%,0%,0%);stroke-opacity:1;stroke-miterlimit:10;" d="M 34.014469 45.353323 L 34.014469 56.6926 L 45.354312 56.6926 L 45.354312 45.353323 Z M 34.014469 45.353323 " transform="matrix(1,0,0,-1.00005,131.091,84.695435)"/>
<path style="fill:none;stroke-width:0.3985;stroke-linecap:butt;stroke-linejoin:miter;stroke:rgb(0%,0%,0%);stroke-opacity:1;stroke-miterlimit:10;" d="M 45.354312 45.353323 L 45.354312 56.6926 L 56.694156 56.6926 L 56.694156 45.353323 Z M 45.354312 45.353323 " transform="matrix(1,0,0,-1.00005,131.091,84.695435)"/>
<path style="fill:none;stroke-width:0.3985;stroke-linecap:butt;stroke-linejoin:miter;stroke:rgb(0%,0%,0%);stroke-opacity:1;stroke-miterlimit:10;" d="M 11.338687 56.6926 L 11.338687 68.031877 L 22.678531 68.031877 L 22.678531 56.6926 Z M 11.338687 56.6926 " transform="matrix(1,0,0,-1.00005,131.091,84.695435)"/>
<path style="fill:none;stroke-width:0.3985;stroke-linecap:butt;stroke-linejoin:miter;stroke:rgb(0%,0%,0%);stroke-opacity:1;stroke-miterlimit:10;" d="M 22.678531 56.6926 L 22.678531 68.031877 L 34.014469 68.031877 L 34.014469 56.6926 Z M 22.678531 56.6926 " transform="matrix(1,0,0,-1.00005,131.091,84.695435)"/>
<path style="fill:none;stroke-width:0.3985;stroke-linecap:butt;stroke-linejoin:miter;stroke:rgb(0%,0%,0%);stroke-opacity:1;stroke-miterlimit:10;" d="M 11.338687 68.031877 L 11.338687 79.371154 L 22.678531 79.371154 L 22.678531 68.031877 Z M 11.338687 68.031877 " transform="matrix(1,0,0,-1.00005,131.091,84.695435)"/>
<path style="fill:none;stroke-width:0.3985;stroke-linecap:butt;stroke-linejoin:miter;stroke:rgb(0%,0%,0%);stroke-opacity:1;stroke-miterlimit:10;" d="M 22.678531 68.031877 L 22.678531 79.371154 L 34.014469 79.371154 L 34.014469 68.031877 Z M 22.678531 68.031877 " transform="matrix(1,0,0,-1.00005,131.091,84.695435)"/>
<path style="fill:none;stroke-width:0.3985;stroke-linecap:butt;stroke-linejoin:miter;stroke:rgb(97.499084%,97.499084%,97.499084%);stroke-opacity:1;stroke-miterlimit:10;" d="M -129.680844 7.820044 L 209.053531 7.820044 L 209.053531 82.894415 L -129.680844 82.894415 Z M -129.680844 7.820044 " transform="matrix(1,0,0,-1.00005,131.091,84.695435)"/>
</g>
</svg>
