<svg xmlns="http://www.w3.org/2000/svg" xmlns:xlink="http://www.w3.org/1999/xlink" xmlns:inkscape="http://www.inkscape.org/namespaces/inkscape" version="1.1" width="341" height="89" viewBox="0 0 341 89">
<defs>
<path id="font_1_1" d="M.1789856 .114868167C.13899231 .047973634 .099990848 .033981325 .055999757 .0309906 .04399109 .02999878 .034988405 .02999878 .034988405 .010986328 .034988405 .004989624 .039993287 0 .04798889 0 .07499695 0 .10598755 .0029907227 .13398743 .0029907227 .16699219 .0029907227 .20199585 0 .23399353 0 .23999024 0 .25299073 0 .25299073 .018997193 .25299073 .02999878 .24398804 .0309906 .23699951 .0309906 .21398926 .032989503 .18998719 .04096985 .18998719 .06593323 .18998719 .077926639 .19599915 .088897708 .20399475 .102890018L.27999879 .23068238H.5309906C.5329895 .2097168 .5469971 .07392883 .5469971 .063949588 .5469971 .033981325 .49499513 .0309906 .47499085 .0309906 .46099855 .0309906 .45098878 .0309906 .45098878 .010986328 .45098878 0 .46299745 0 .46499635 0 .5059967 0 .548996 .0029907227 .58999636 .0029907227 .61499026 .0029907227 .6779938 0 .7029877 0 .70899966 0 .72099307 0 .72099307 .019989014 .72099307 .0309906 .71099856 .0309906 .69799807 .0309906 .6359863 .0309906 .6359863 .037979127 .6329956 .06694031L.57199099 .691803C.56999209 .71180728 .56999209 .7158203 .5529938 .7158203 .5369873 .7158203 .5329895 .7088165 .5269928 .69880679L.1789856 .114868167M.29899598 .26168824 .49598695 .5917816 .5279999 .26168824H.29899598Z"/>
<path id="font_1_2" d="M.1599884 .07795715C.1499939 .038986207 .147995 .0309906 .068984989 .0309906 .051986696 .0309906 .041992189 .0309906 .041992189 .010986328 .041992189 0 .050994874 0 .068984989 0H.42599488C.58399966 0 .70199587 .11791992 .70199587 .21585083 .70199587 .28778077 .6439972 .3457489 .5469971 .35673524 .651001 .37573243 .7559967 .44970704 .7559967 .5446625 .7559967 .6186218 .6899872 .6826172 .56999209 .6826172H.23399353C.21499634 .6826172 .20498657 .6826172 .20498657 .6626129 .20498657 .6516113 .21398926 .6516113 .23298645 .6516113 .23498535 .6516113 .2539978 .6516113 .2709961 .6496124 .2889862 .6476135 .2979889 .64660647 .2979889 .6336212 .2979889 .6296234 .29699708 .62661746 .2939911 .614624L.1599884 .07795715M.31098939 .36573792 .37298585 .6136322C.38198854 .64860537 .38398744 .6516113 .4269867 .6516113H.55599978C.6439972 .6516113 .6649933 .5926361 .6649933 .5486603 .6649933 .46069337 .57899478 .36573792 .45700074 .36573792H.31098939M.2659912 .0309906C.2519989 .0309906 .25 .0309906 .24398804 .03199768 .23399353 .032989503 .23098755 .033996583 .23098755 .04197693 .23098755 .04498291 .23098755 .04698181 .23599243 .064971927L.30499269 .34375H.49398805C.58999636 .34375 .60899356 .2698059 .60899356 .22683716 .60899356 .12791443 .519989 .0309906 .4019928 .0309906H.2659912Z"/>
<path id="font_2_1" d="M.61099246 .5616455C.61099246 .5796509 .61099246 .59765627 .59098818 .59765627 .57099917 .59765627 .57099917 .5796509 .57099917 .5616455V.1995697C.57099917 .049545289 .4079895 .017532349 .33299256 .017532349 .28799439 .017532349 .22499085 .026535035 .17199707 .060546876 .09498596 .109558109 .09498596 .17356873 .09498596 .20057678V.5616455C.09498596 .5796509 .09498596 .59765627 .07499695 .59765627 .054992677 .59765627 .054992677 .5796509 .054992677 .5616455V.1955719C.054992677 .043533327 .20799256-.022460938 .33299256-.022460938 .46299745-.022460938 .61099246 .047531129 .61099246 .19456482V.5616455Z"/>
<clipPath id="clip_3">
<path transform="matrix(1.00008,0,0,-1.00008,48.283433,38.813829)" d="M136.06476 0C136.06476 15.6557 123.37366 28.3468 107.71794 28.3468 92.06223 28.3468 79.37114 15.6557 79.37114 0 79.37114-15.6557 92.06223-28.3468 107.71794-28.3468 123.37366-28.3468 136.06476-15.6557 136.06476 0ZM107.71794 0"/>
</clipPath>
<path id="font_2_2" d="M.61099246 .37960816C.61099246 .5316467 .45799256 .59765627 .33299256 .59765627 .20298767 .59765627 .054992677 .5276489 .054992677 .38061524V.013534546C.054992677-.004470825 .054992677-.022460938 .07499695-.022460938 .09498596-.022460938 .09498596-.004470825 .09498596 .013534546V.37561036C.09498596 .52565 .2579956 .5576477 .33299256 .5576477 .37799073 .5576477 .44099427 .548645 .49398805 .5146332 .57099917 .4656372 .57099917 .40161134 .57099917 .37460328V.013534546C.57099917-.004470825 .57099917-.022460938 .59098818-.022460938 .61099246-.022460938 .61099246-.004470825 .61099246 .013534546V.37960816Z"/>
<clipPath id="clip_4">
<path transform="matrix(1.00008,0,0,-1.00008,48.283433,38.813829)" d="M243.78272 0C243.78272 15.6557 231.09162 28.3468 215.43592 28.3468 199.7802 28.3468 187.0891 15.6557 187.0891 0 187.0891-15.6557 199.7802-28.3468 215.43592-28.3468 231.09162-28.3468 243.78272-15.6557 243.78272 0ZM215.43592 0"/>
</clipPath>
<path id="font_2_3" d="M.40098573-.22601319C.4059906-.2400055 .41099549-.25 .42399598-.25 .43499757-.25 .44400025-.24101258 .44400025-.23001099 .44400025-.22801209 .44400025-.22601319 .43899537-.21400452L.09700012 .7259979C.09098816 .7429962 .08799744 .75 .07499695 .75 .06399536 .75 .054992677 .7409973 .054992677 .7299957 .054992677 .7279968 .054992677 .7259979 .05999756 .71398928L.40098573-.22601319Z"/>
</defs>
<path transform="matrix(1.00008,0,0,-1.00008,48.283433,38.813829)" d="M28.3468 0C28.3468 15.6557 15.6557 28.3468 0 28.3468-15.6557 28.3468-28.3468 15.6557-28.3468 0-28.3468-15.6557-15.6557-28.3468 0-28.3468 15.6557-28.3468 28.3468-15.6557 28.3468 0ZM56.69362 0C56.69362 15.6557 44.00252 28.3468 28.3468 28.3468 12.69109 28.3468 0 15.6557 0 0 0-15.6557 12.69109-28.3468 28.3468-28.3468 44.00252-28.3468 56.69362-15.6557 56.69362 0ZM28.3468 0" fill="#bfbfbf"/>
<path transform="matrix(1.00008,0,0,-1.00008,48.283433,38.813829)" stroke-width=".3985" stroke-linecap="butt" stroke-miterlimit="10" stroke-linejoin="miter" fill="none" stroke="#000000" d="M28.3468 0C28.3468 15.6557 15.6557 28.3468 0 28.3468-15.6557 28.3468-28.3468 15.6557-28.3468 0-28.3468-15.6557-15.6557-28.3468 0-28.3468 15.6557-28.3468 28.3468-15.6557 28.3468 0ZM56.69362 0C56.69362 15.6557 44.00252 28.3468 28.3468 28.3468 12.69109 28.3468 0 15.6557 0 0 0-15.6557 12.69109-28.3468 28.3468-28.3468 44.00252-28.3468 56.69362-15.6557 56.69362 0ZM28.3468 0"/>
<use data-text="A" xlink:href="#font_1_1" transform="matrix(9.963397,0,0,-9.963397,17.24495,15.247944)"/>
<use data-text="B" xlink:href="#font_1_2" transform="matrix(9.963397,0,0,-9.963397,100.198589,15.247944)"/>
<use data-text="A" xlink:href="#font_1_1" transform="matrix(9.963397,0,0,-9.963397,49.449525,77.49192)"/>
<use data-text="&#x222a;" xlink:href="#font_2_1" transform="matrix(9.963397,0,0,-9.963397,59.136308,77.49192)"/>
<use data-text="B" xlink:href="#font_1_2" transform="matrix(9.963397,0,0,-9.963397,67.992008,77.49192)"/>
<g clip-path="url(#clip_3)">
<path transform="matrix(1.00008,0,0,-1.00008,48.283433,38.813829)" d="M164.41156 0C164.41156 15.6557 151.72046 28.3468 136.06476 28.3468 120.40904 28.3468 107.71794 15.6557 107.71794 0 107.71794-15.6557 120.40904-28.3468 136.06476-28.3468 151.72046-28.3468 164.41156-15.6557 164.41156 0ZM136.06476 0" fill="#bfbfbf"/>
</g>
<path transform="matrix(1.00008,0,0,-1.00008,48.283433,38.813829)" stroke-width=".3985" stroke-linecap="butt" stroke-miterlimit="10" stroke-linejoin="miter" fill="none" stroke="#000000" d="M136.06476 0C136.06476 15.6557 123.37366 28.3468 107.71794 28.3468 92.06223 28.3468 79.37114 15.6557 79.37114 0 79.37114-15.6557 92.06223-28.3468 107.71794-28.3468 123.37366-28.3468 136.06476-15.6557 136.06476 0ZM164.41156 0C164.41156 15.6557 151.72046 28.3468 136.06476 28.3468 120.40904 28.3468 107.71794 15.6557 107.71794 0 107.71794-15.6557 120.40904-28.3468 136.06476-28.3468 151.72046-28.3468 164.41156-15.6557 164.41156 0ZM136.06476 0"/>
<use data-text="A" xlink:href="#font_1_1" transform="matrix(9.963397,0,0,-9.963397,124.971569,15.247944)"/>
<use data-text="B" xlink:href="#font_1_2" transform="matrix(9.963397,0,0,-9.963397,207.9252,15.247944)"/>
<use data-text="A" xlink:href="#font_1_1" transform="matrix(9.963397,0,0,-9.963397,157.17615,77.49192)"/>
<use data-text="&#x2229;" xlink:href="#font_2_2" transform="matrix(9.963397,0,0,-9.963397,166.86293,77.49192)"/>
<use data-text="B" xlink:href="#font_1_2" transform="matrix(9.963397,0,0,-9.963397,175.71863,77.49192)"/>
<g clip-path="url(#clip_4)">
<path transform="matrix(1.00008,0,0,-1.00008,48.283433,38.813829)" d="M243.78272 0C243.78272 15.6557 231.09162 28.3468 215.43592 28.3468 199.7802 28.3468 187.0891 15.6557 187.0891 0 187.0891-15.6557 199.7802-28.3468 215.43592-28.3468 231.09162-28.3468 243.78272-15.6557 243.78272 0ZM272.12953 0C272.12953 15.6557 259.43843 28.3468 243.78272 28.3468 228.127 28.3468 215.43592 15.6557 215.43592 0 215.43592-15.6557 228.127-28.3468 243.78272-28.3468 259.43843-28.3468 272.12953-15.6557 272.12953 0ZM243.78272 0" fill="#bfbfbf" fill-rule="evenodd"/>
</g>
<path transform="matrix(1.00008,0,0,-1.00008,48.283433,38.813829)" stroke-width=".3985" stroke-linecap="butt" stroke-miterlimit="10" stroke-linejoin="miter" fill="none" stroke="#000000" d="M243.78272 0C243.78272 15.6557 231.09162 28.3468 215.43592 28.3468 199.7802 28.3468 187.0891 15.6557 187.0891 0 187.0891-15.6557 199.7802-28.3468 215.43592-28.3468 231.09162-28.3468 243.78272-15.6557 243.78272 0ZM272.12953 0C272.12953 15.6557 259.43843 28.3468 243.78272 28.3468 228.127 28.3468 215.43592 15.6557 215.43592 0 215.43592-15.6557 228.127-28.3468 243.78272-28.3468 259.43843-28.3468 272.12953-15.6557 272.12953 0ZM243.78272 0"/>
<use data-text="A" xlink:href="#font_1_1" transform="matrix(9.963397,0,0,-9.963397,232.69818,15.247944)"/>
<use data-text="B" xlink:href="#font_1_2" transform="matrix(9.963397,0,0,-9.963397,315.6518,15.247944)"/>
<use data-text="A" xlink:href="#font_1_1" transform="matrix(9.963397,0,0,-9.963397,265.73384,78.155979)"/>
<use data-text="\" xlink:href="#font_2_3" transform="matrix(9.963397,0,0,-9.963397,275.4206,78.155979)"/>
<use data-text="B" xlink:href="#font_1_2" transform="matrix(9.963397,0,0,-9.963397,282.61619,78.155979)"/>
<path transform="matrix(1.00008,0,0,-1.00008,48.283433,38.813829)" stroke-width=".3985" stroke-linecap="butt" stroke-miterlimit="10" stroke-linejoin="miter" fill="none" stroke="#f9f9f9" d="M-47.1834-48.47052H291.55073V37.01306H-47.1834Z"/>
</svg>
