<?xml version="1.0" encoding="UTF-8"?>
<svg xmlns="http://www.w3.org/2000/svg" xmlns:xlink="http://www.w3.org/1999/xlink" width="342pt" height="44pt" viewBox="0 0 342 44" version="1.1">
<g id="surface1">
<path style="fill:none;stroke-width:0.3985;stroke-linecap:butt;stroke-linejoin:miter;stroke:rgb(0%,0%,0%);stroke-opacity:1;stroke-miterlimit:10;" d="M 11.339375 11.339063 L 11.339375 22.678906 L 22.675313 22.678906 L 22.675313 11.339063 Z M 11.339375 11.339063 " transform="matrix(1,0,0,-1,153.77,50.675)"/>
<path style="fill:none;stroke-width:0.3985;stroke-linecap:butt;stroke-linejoin:miter;stroke:rgb(0%,0%,0%);stroke-opacity:1;stroke-miterlimit:10;" d="M 11.339375 22.678906 L 11.339375 34.014844 L 22.675313 34.014844 L 22.675313 22.678906 Z M 11.339375 22.678906 " transform="matrix(1,0,0,-1,153.77,50.675)"/>
<path style="fill:none;stroke-width:0.3985;stroke-linecap:butt;stroke-linejoin:miter;stroke:rgb(0%,0%,0%);stroke-opacity:1;stroke-miterlimit:10;" d="M 11.339375 34.014844 L 11.339375 45.354688 L 22.675313 45.354688 L 22.675313 34.014844 Z M 11.339375 34.014844 " transform="matrix(1,0,0,-1,153.77,50.675)"/>
<path style="fill:none;stroke-width:0.3985;stroke-linecap:butt;stroke-linejoin:miter;stroke:rgb(97.499084%,97.499084%,97.499084%);stroke-opacity:1;stroke-miterlimit:10;" d="M -152.359844 7.819531 L 186.374531 7.819531 L 186.374531 48.878125 L -152.359844 48.878125 Z M -152.359844 7.819531 " transform="matrix(1,0,0,-1,153.77,50.675)"/>
</g>
</svg>
