<?xml version="1.0" encoding="UTF-8"?>
<svg xmlns="http://www.w3.org/2000/svg" xmlns:xlink="http://www.w3.org/1999/xlink" width="342pt" height="22pt" viewBox="0 0 342 22" version="1.1">
<g id="surface1">
<path style="fill:none;stroke-width:0.3985;stroke-linecap:butt;stroke-linejoin:miter;stroke:rgb(0%,0%,0%);stroke-opacity:1;stroke-miterlimit:10;" d="M 11.338875 11.338897 L 11.338875 22.677833 L 22.678719 22.677833 L 22.678719 11.338897 Z M 11.338875 11.338897 " transform="matrix(1,0,0,-1.00008,114.083,27.99996)"/>
<path style="fill:none;stroke-width:0.3985;stroke-linecap:butt;stroke-linejoin:miter;stroke:rgb(0%,0%,0%);stroke-opacity:1;stroke-miterlimit:10;" d="M 22.678719 11.338897 L 22.678719 22.677833 L 34.014656 22.677833 L 34.014656 11.338897 Z M 22.678719 11.338897 " transform="matrix(1,0,0,-1.00008,114.083,27.99996)"/>
<path style="fill:none;stroke-width:0.3985;stroke-linecap:butt;stroke-linejoin:miter;stroke:rgb(0%,0%,0%);stroke-opacity:1;stroke-miterlimit:10;" d="M 34.014656 11.338897 L 34.014656 22.677833 L 45.3545 22.677833 L 45.3545 11.338897 Z M 34.014656 11.338897 " transform="matrix(1,0,0,-1.00008,114.083,27.99996)"/>
<path style="fill:none;stroke-width:0.3985;stroke-linecap:butt;stroke-linejoin:miter;stroke:rgb(0%,0%,0%);stroke-opacity:1;stroke-miterlimit:10;" d="M 45.3545 11.338897 L 45.3545 22.677833 L 56.694344 22.677833 L 56.694344 11.338897 Z M 45.3545 11.338897 " transform="matrix(1,0,0,-1.00008,114.083,27.99996)"/>
<path style="fill:none;stroke-width:0.3985;stroke-linecap:butt;stroke-linejoin:miter;stroke:rgb(0%,0%,0%);stroke-opacity:1;stroke-miterlimit:10;" d="M 56.694344 11.338897 L 56.694344 22.677833 L 68.030281 22.677833 L 68.030281 11.338897 Z M 56.694344 11.338897 " transform="matrix(1,0,0,-1.00008,114.083,27.99996)"/>
<path style="fill:none;stroke-width:0.3985;stroke-linecap:butt;stroke-linejoin:miter;stroke:rgb(0%,0%,0%);stroke-opacity:1;stroke-miterlimit:10;" d="M 68.030281 11.338897 L 68.030281 22.677833 L 79.370125 22.677833 L 79.370125 11.338897 Z M 68.030281 11.338897 " transform="matrix(1,0,0,-1.00008,114.083,27.99996)"/>
<path style="fill:none;stroke-width:0.3985;stroke-linecap:butt;stroke-linejoin:miter;stroke:rgb(0%,0%,0%);stroke-opacity:1;stroke-miterlimit:10;" d="M 79.370125 11.338897 L 79.370125 22.677833 L 90.709969 22.677833 L 90.709969 11.338897 Z M 79.370125 11.338897 " transform="matrix(1,0,0,-1.00008,114.083,27.99996)"/>
<path style="fill:none;stroke-width:0.3985;stroke-linecap:butt;stroke-linejoin:miter;stroke:rgb(0%,0%,0%);stroke-opacity:1;stroke-miterlimit:10;" d="M 90.709969 11.338897 L 90.709969 22.677833 L 102.045906 22.677833 L 102.045906 11.338897 Z M 90.709969 11.338897 " transform="matrix(1,0,0,-1.00008,114.083,27.99996)"/>
<path style="fill:none;stroke-width:0.3985;stroke-linecap:butt;stroke-linejoin:miter;stroke:rgb(97.499084%,97.499084%,97.499084%);stroke-opacity:1;stroke-miterlimit:10;" d="M -112.668938 7.819647 L 226.065438 7.819647 L 226.065438 26.197083 L -112.668938 26.197083 Z M -112.668938 7.819647 " transform="matrix(1,0,0,-1.00008,114.083,27.99996)"/>
</g>
</svg>
