<?xml version="1.0" encoding="UTF-8"?>
<svg xmlns="http://www.w3.org/2000/svg" xmlns:xlink="http://www.w3.org/1999/xlink" width="342pt" height="33pt" viewBox="0 0 342 33" version="1.1">
<g id="surface1">
<path style="fill:none;stroke-width:0.3985;stroke-linecap:butt;stroke-linejoin:miter;stroke:rgb(0%,0%,0%);stroke-opacity:1;stroke-miterlimit:10;" d="M 11.3375 11.339906 L 11.3375 22.675844 L 22.677344 22.675844 L 22.677344 11.339906 Z M 11.3375 11.339906 " transform="matrix(1,0,0,-1,148.1,39.336)"/>
<path style="fill:none;stroke-width:0.3985;stroke-linecap:butt;stroke-linejoin:miter;stroke:rgb(0%,0%,0%);stroke-opacity:1;stroke-miterlimit:10;" d="M 22.677344 11.339906 L 22.677344 22.675844 L 34.017188 22.675844 L 34.017188 11.339906 Z M 22.677344 11.339906 " transform="matrix(1,0,0,-1,148.1,39.336)"/>
<path style="fill:none;stroke-width:0.3985;stroke-linecap:butt;stroke-linejoin:miter;stroke:rgb(0%,0%,0%);stroke-opacity:1;stroke-miterlimit:10;" d="M 11.3375 22.675844 L 11.3375 34.015687 L 22.677344 34.015687 L 22.677344 22.675844 Z M 11.3375 22.675844 " transform="matrix(1,0,0,-1,148.1,39.336)"/>
<path style="fill:none;stroke-width:0.3985;stroke-linecap:butt;stroke-linejoin:miter;stroke:rgb(0%,0%,0%);stroke-opacity:1;stroke-miterlimit:10;" d="M 22.677344 22.675844 L 22.677344 34.015687 L 34.017188 34.015687 L 34.017188 22.675844 Z M 22.677344 22.675844 " transform="matrix(1,0,0,-1,148.1,39.336)"/>
<path style="fill:none;stroke-width:0.3985;stroke-linecap:butt;stroke-linejoin:miter;stroke:rgb(97.499084%,97.499084%,97.499084%);stroke-opacity:1;stroke-miterlimit:10;" d="M -146.689844 7.820375 L 192.044531 7.820375 L 192.044531 37.539125 L -146.689844 37.539125 Z M -146.689844 7.820375 " transform="matrix(1,0,0,-1,148.1,39.336)"/>
</g>
</svg>
