<svg xmlns="http://www.w3.org/2000/svg" xmlns:xlink="http://www.w3.org/1999/xlink" xmlns:inkscape="http://www.inkscape.org/namespaces/inkscape" version="1.1" width="342" height="44" viewBox="0 0 342 44">
<path transform="matrix(1,0,0,-1,148.1,50.675)" stroke-width=".3985" stroke-linecap="butt" stroke-miterlimit="10" stroke-linejoin="miter" fill="none" stroke="#000000" d="M11.33855 11.33855V22.6771H22.6771V11.33855ZM22.6771 22.6771"/>
<path transform="matrix(1,0,0,-1,148.1,50.675)" stroke-width=".3985" stroke-linecap="butt" stroke-miterlimit="10" stroke-linejoin="miter" fill="none" stroke="#000000" d="M22.6771 11.33855V22.6771H34.01564V11.33855ZM34.01564 22.6771"/>
<path transform="matrix(1,0,0,-1,148.1,50.675)" stroke-width=".3985" stroke-linecap="butt" stroke-miterlimit="10" stroke-linejoin="miter" fill="none" stroke="#000000" d="M11.33855 22.6771V34.01564H22.6771V22.6771ZM22.6771 34.01564"/>
<path transform="matrix(1,0,0,-1,148.1,50.675)" stroke-width=".3985" stroke-linecap="butt" stroke-miterlimit="10" stroke-linejoin="miter" fill="none" stroke="#000000" d="M22.6771 22.6771V34.01564H34.01564V22.6771ZM34.01564 34.01564"/>
<path transform="matrix(1,0,0,-1,148.1,50.675)" stroke-width=".3985" stroke-linecap="butt" stroke-miterlimit="10" stroke-linejoin="miter" fill="none" stroke="#000000" d="M11.33855 34.01564V45.35419H22.6771V34.01564ZM22.6771 45.35419"/>
<path transform="matrix(1,0,0,-1,148.1,50.675)" stroke-width=".3985" stroke-linecap="butt" stroke-miterlimit="10" stroke-linejoin="miter" fill="none" stroke="#fafafa" d="M-146.68848 7.82002H192.04566V48.87645H-146.68848Z"/>
</svg>
