<svg xmlns="http://www.w3.org/2000/svg" xmlns:xlink="http://www.w3.org/1999/xlink" version="1.1" width="341" height="110" viewBox="0 0 341 110">
<defs>
<path id="font_1_1" d="M.7599945 .69506838C.7599945 .69807437 .7579956 .7050781 .7489929 .7050781 .74598696 .7050781 .7449951 .70407107 .73399356 .69306948L.6639862 .61598208C.6549988 .6300049 .60899356 .7050781 .49798585 .7050781 .2749939 .7050781 .049987794 .4837799 .049987794 .25144959 .049987794 .09249878 .16099549-.022460938 .32299806-.022460938 .36698915-.022460938 .4119873-.013473511 .44799806 .0015258789 .49798585 .021530152 .5169983 .042526246 .5349884 .06251526 .5439911 .037521364 .56999209 .0005340576 .5799866 .0005340576 .58499148 .0005340576 .58699038 .0035247803 .58699038 .0045318605 .58898928 .0065307619 .598999 .044525148 .60398867 .06550598L.6230011 .14248657C.6269989 .15948487 .6319885 .1764679 .6359863 .19346619 .6469879 .2384491 .647995 .240448 .7049866 .24145508 .70999148 .24145508 .72099307 .2424469 .72099307 .26145936 .72099307 .26844789 .71598818 .27246095 .70799258 .27246095 .68499758 .27246095 .6259918 .26945497 .6029968 .26945497 .57199099 .26945497 .49398805 .27246095 .46299745 .27246095 .45399476 .27246095 .44198609 .27246095 .44198609 .25245667 .44198609 .24145508 .44999696 .24145508 .47200013 .24145508 .47299195 .24145508 .5019989 .24145508 .5249939 .23945618 .5509949 .2364502 .55599978 .23345948 .55599978 .22045899 .55599978 .2114563 .54499819 .16647339 .5349884 .12948609 .5069885 .01953125 .3769989 .008529663 .34199525 .008529663 .24598694 .008529663 .14099121 .06550598 .14099121 .21846009 .14099121 .24945069 .15098572 .41467286 .2559967 .5448761 .30999757 .6129761 .40699769 .67407229 .5059967 .67407229 .60798647 .67407229 .6669922 .59695437 .6669922 .48077394 .6669922 .44070436 .6639862 .43971253 .6639862 .4296875 .6639862 .41967774 .6749878 .41967774 .67900088 .41967774 .69200137 .41967774 .69200137 .42167665 .69699099 .43971253L.7599945 .69506838Z"/>
<path id="font_2_1" d="M.32798768 .71199038C.33299256 .72299197 .33299256 .72499087 .33299256 .7299957 .33299256 .7409973 .32398988 .75 .31298829 .75 .3039856 .75 .29699708 .7449951 .2899933 .72698977L.114990238 .2679901C.11299133 .2619934 .10998535 .2559967 .10998535 .25 .10998535 .24699402 .10998535 .24499512 .114990238 .23298645L.2899933-.22601319C.2939911-.23701477 .29899598-.25 .31298829-.25 .32398988-.25 .33299256-.24101258 .33299256-.23001099 .33299256-.227005 .33299256-.2250061 .32798768-.21400452L.15098572 .25 .32798768 .71199038Z"/>
<path id="font_1_2" d="M.47099305 .3773346C.47200013 .3833313 .47399903 .38833619 .47399903 .39535523 .47399903 .41236878 .46199037 .42237855 .44499208 .42237855 .43499757 .42237855 .4079895 .41537477 .4039917 .3793335 .38598634 .41636659 .35099793 .4423828 .31098939 .4423828 .19699097 .4423828 .07299805 .30226136 .07299805 .15812683 .07299805 .059020997 .13398743 0 .20599365 0 .2649994 0 .31199647 .04701233 .32199098 .058029176L.32299806 .057022096C.3019867-.031982423 .2899933-.07295227 .2899933-.07495117 .28599549-.08395386 .2519989-.18309021 .1459961-.18309021 .1269989-.18309021 .09399414-.18206787 .06599426-.17297364 .09599304-.16394043 .10699463-.13793946 .10699463-.12094116 .10699463-.10494995 .09599304-.0859375 .068984989-.0859375 .04699707-.0859375 .01499939-.10394287 .01499939-.14395142 .01499939-.18508911 .051986696-.20507813 .147995-.20507813 .272995-.20507813 .34498597-.12693787 .3600006-.06695557L.47099305 .3773346M.34098817 .12809754C.33499146 .10206604 .31199647 .077041629 .2899933 .058029176 .2689972 .040008546 .23799134 .021987915 .20899964 .021987915 .15899658 .021987915 .14399719 .074035648 .14399719 .11407471 .14399719 .16212464 .17298889 .28024293 .19999695 .33128358 .22698975 .38034059 .269989 .42037965 .31199647 .42037965 .37799073 .42037965 .3919983 .33929444 .3919983 .33428956 .3919983 .32928468 .3899994 .3232727 .3889923 .3192749L.34098817 .12809754Z"/>
<path id="font_3_1" d="M.5049896 .18203736H.47099305C.46798707 .16001892 .45799256 .100997928 .44499208 .09098816 .43699647 .084991458 .3600006 .084991458 .34599305 .084991458H.1619873C.2669983 .17803955 .3019867 .20603943 .3619995 .25306703 .43598939 .312088 .5049896 .374115 .5049896 .46914674 .5049896 .5900879 .39898683 .6640625 .2709961 .6640625 .14698792 .6640625 .06298828 .57710269 .06298828 .4851532 .06298828 .43414308 .10598755 .42915345 .115997318 .42915345 .13999939 .42915345 .16899109 .44615174 .16899109 .48214723 .16899109 .5001526 .1619873 .53515627 .10998535 .53515627 .14099121 .6060791 .20899964 .62805178 .2559967 .62805178 .35598756 .62805178 .4079895 .5501404 .4079895 .46914674 .4079895 .38212586 .34599305 .3130951 .31399537 .27708436L.07299805 .038986207C.06298828 .02999878 .06298828 .027999878 .06298828 0H.47499085L.5049896 .18203736Z"/>
<path id="font_2_2" d="M.272995 .23298645C.27799989 .24499512 .27799989 .24699402 .27799989 .25 .27799989 .25299073 .27799989 .25498963 .272995 .2669983L.09799194 .72698977C.09199524 .74398806 .085998538 .75 .07499695 .75 .06399536 .75 .054992677 .7409973 .054992677 .7299957 .054992677 .72698977 .054992677 .72499087 .05999756 .71398928L.23699951 .25 .05999756-.21200562C.054992677-.2230072 .054992677-.2250061 .054992677-.23001099 .054992677-.24101258 .06399536-.25 .07499695-.25 .08799744-.25 .09199524-.2400055 .09599304-.23001099L.272995 .23298645Z"/>
<path id="font_3_2" d="M.272995 .33428956C.35099793 .33428956 .40699769 .2803192 .40699769 .1733551 .40699769 .04940796 .33499146 .012466431 .2769928 .012466431 .23699951 .012466431 .14898682 .0234375 .10699463 .082351688 .1539917 .084350589 .16499329 .11735535 .16499329 .13835144 .16499329 .17034912 .14099121 .19335938 .10998535 .19335938 .08198547 .19335938 .053985597 .17634583 .053985597 .13534546 .053985597 .041412355 .1579895-.01953125 .2789917-.01953125 .41799928-.01953125 .5139923 .07336426 .5139923 .1733551 .5139923 .2513275 .44999696 .32929994 .33999635 .35229493 .44499208 .39024354 .48298646 .4650879 .48298646 .5260773 .48298646 .60505679 .3919983 .6640625 .2809906 .6640625 .16999817 .6640625 .084991458 .61006167 .084991458 .5300751 .084991458 .49606324 .10699463 .47706605 .13699341 .47706605 .16799927 .47706605 .18798828 .5000763 .18798828 .5280762 .18798828 .5570679 .16799927 .57806399 .13699341 .5800781 .17199707 .62405398 .24099732 .63505557 .27799989 .63505557 .32299806 .63505557 .38598634 .6130676 .38598634 .5260773 .38598634 .48406983 .37199403 .43814088 .34599305 .4072113 .31298829 .36927796 .2849884 .3672943 .23498535 .36428834 .20999146 .3623047 .20799256 .3623047 .20298767 .3612976 .20098877 .3612976 .19299317 .3592987 .19299317 .34829713 .19299317 .33428956 .20199585 .33428956 .21899414 .33428956H.272995Z"/>
<path id="font_3_3" d="M.1499939 .3274536C.1499939 .40945436 .15699768 .48303224 .19499207 .543869 .22898865 .5978699 .2829895 .63505557 .34700013 .63505557 .3769989 .63505557 .4169922 .62701418 .43699647 .5998688 .4119873 .5978699 .3909912 .5808716 .3909912 .5518799 .3909912 .5268707 .4079895 .5048828 .43798829 .5048828 .46798707 .5048828 .48599244 .5248718 .48599244 .5538788 .48599244 .6119385 .44400025 .6640625 .34498597 .6640625 .20098877 .6640625 .053985597 .5318756 .053985597 .3174591 .053985597 .05845642 .17599488-.01953125 .28599549-.01953125 .4079895-.01953125 .5139923 .07345581 .5139923 .20445252 .5139923 .33145143 .41299439 .42546083 .29599 .42546083 .21598816 .42546083 .17199707 .37245179 .1499939 .3274536M.28599549 .012466431C.23599243 .012466431 .19699097 .04145813 .17599488 .08546448 .16099549 .11546326 .15299988 .16545105 .15299988 .22544861 .15299988 .32244874 .21099854 .39746095 .29100038 .39746095 .33699037 .39746095 .36799623 .37945558 .3929901 .342453 .4169922 .30445863 .41799928 .26245118 .41799928 .20445252 .41799928 .14746094 .41799928 .10545349 .3909912 .066467288 .36698915 .031463624 .33499146 .012466431 .28599549 .012466431Z"/>
</defs>
<use data-text="G" xlink:href="#font_1_1" transform="matrix(9.963397,0,0,-9.9626,166.55689,18.569)"/>
<use data-text="&#x27e8;" xlink:href="#font_2_1" transform="matrix(9.963397,0,0,-9.9626,137.8396,55.997)"/>
<use data-text="g" xlink:href="#font_1_2" transform="matrix(9.963397,0,0,-9.9626,141.7139,55.997)"/>
<use data-text="2" xlink:href="#font_3_1" transform="matrix(6.974358,0,0,-6.9738,146.82431,52.381)"/>
<use data-text="&#x27e9;" xlink:href="#font_2_2" transform="matrix(9.963397,0,0,-9.9626,151.29364,55.997)"/>
<use data-text="&#x27e8;" xlink:href="#font_2_1" transform="matrix(9.963397,0,0,-9.9626,185.78043,55.997)"/>
<use data-text="g" xlink:href="#font_1_2" transform="matrix(9.963397,0,0,-9.9626,189.65473,55.997)"/>
<use data-text="3" xlink:href="#font_3_2" transform="matrix(6.974358,0,0,-6.9738,194.7651,52.381)"/>
<use data-text="&#x27e9;" xlink:href="#font_2_2" transform="matrix(9.963397,0,0,-9.9626,199.23447,55.997)"/>
<use data-text="&#x27e8;" xlink:href="#font_2_1" transform="matrix(9.963397,0,0,-9.9626,161.80951,95.915)"/>
<use data-text="g" xlink:href="#font_1_2" transform="matrix(9.963397,0,0,-9.9626,165.68482,95.915)"/>
<use data-text="6" xlink:href="#font_3_3" transform="matrix(6.974358,0,0,-6.9738,170.79425,92.3)"/>
<use data-text="&#x27e9;" xlink:href="#font_2_2" transform="matrix(9.963397,0,0,-9.9626,175.26459,95.915)"/>
<path transform="matrix(1.00008,0,0,-1,170.47519,55.083)" stroke-width=".3985" stroke-linecap="butt" stroke-miterlimit="10" stroke-linejoin="miter" fill="none" stroke="#000000" d="M-17.34753 12.40167-6.27678 29.96152"/>
<path transform="matrix(-.53334268,.84589,.84595766,.5333,153.12628,42.681329)" stroke-width=".3985" stroke-linecap="round" stroke-miterlimit="10" stroke-linejoin="miter" fill="none" stroke="#000000" d="M0 0H.35864C1.15483 0 1.79321-.79619 1.79321-1.43457 1.79321-2.23076 1.15483-2.86916 .35864-2.86916"/>
<path transform="matrix(.53334268,-.84589,-.84595766,-.5333,164.1979,25.12148)" d="M3.58653 0C2.52383 .19925 .797 .797-.3985 1.49438V-1.49438C.797-.797 2.52383-.19925 3.58653 0"/>
<path transform="matrix(1.00008,0,0,-1,170.47519,55.083)" stroke-width=".3985" stroke-linecap="butt" stroke-miterlimit="10" stroke-linejoin="miter" fill="none" stroke="#000000" d="M17.34753 12.40167 6.27678 29.96152"/>
<path transform="matrix(.53334268,.84589,.84595766,-.5333,187.8241,42.681329)" stroke-width=".3985" stroke-linecap="round" stroke-miterlimit="10" stroke-linejoin="miter" fill="none" stroke="#000000" d="M0 0H.35864C1.15483 0 1.79321-.79619 1.79321-1.43457 1.79321-2.23076 1.15483-2.86916 .35864-2.86916"/>
<path transform="matrix(-.53334268,-.84589,-.84595766,.5333,176.75247,25.12148)" d="M3.58653 0C2.52383 .19925 .797 .797-.3985 1.49438V-1.49438C.797-.797 2.52383-.19925 3.58653 0"/>
<path transform="matrix(1.00008,0,0,-1,170.47519,55.083)" stroke-width=".3985" stroke-linecap="butt" stroke-miterlimit="10" stroke-linejoin="miter" fill="none" stroke="#000000" d="M-6.32092-27.49474-16.82849-9.99832"/>
<path transform="matrix(.5148712,.85725,.8573185,-.51483,164.15375,82.57774)" stroke-width=".3985" stroke-linecap="round" stroke-miterlimit="10" stroke-linejoin="miter" fill="none" stroke="#000000" d="M0 0H.35864C1.15483 0 1.79321-.79619 1.79321-1.43457 1.79321-2.23076 1.15483-2.86916 .35864-2.86916"/>
<path transform="matrix(-.5148712,-.85725,-.8573185,.51483,153.64536,65.08132)" d="M3.58653 0C2.52383 .19925 .797 .797-.3985 1.49438V-1.49438C.797-.797 2.52383-.19925 3.58653 0"/>
<path transform="matrix(1.00008,0,0,-1,170.47519,55.083)" stroke-width=".3985" stroke-linecap="butt" stroke-miterlimit="10" stroke-linejoin="miter" fill="none" stroke="#000000" d="M6.32092-27.49474 16.82849-9.99832"/>
<path transform="matrix(-.5148712,.85725,.8573185,.51483,176.79663,82.57774)" stroke-width=".3985" stroke-linecap="round" stroke-miterlimit="10" stroke-linejoin="miter" fill="none" stroke="#000000" d="M0 0H.35864C1.15483 0 1.79321-.79619 1.79321-1.43457 1.79321-2.23076 1.15483-2.86916 .35864-2.86916"/>
<path transform="matrix(.5148712,-.85725,-.8573185,-.51483,187.30503,65.08132)" d="M3.58653 0C2.52383 .19925 .797 .797-.3985 1.49438V-1.49438C.797-.797 2.52383-.19925 3.58653 0"/>
<path transform="matrix(1.00008,0,0,-1,170.47519,55.083)" stroke-width=".3985" stroke-linecap="butt" stroke-miterlimit="10" stroke-linejoin="miter" fill="none" stroke="#fafafa" d="M-169.36707-53.2847H169.36707V53.284715H-169.36707Z"/>
</svg>
