<?xml version="1.0" encoding="UTF-8"?>
<svg xmlns="http://www.w3.org/2000/svg" xmlns:xlink="http://www.w3.org/1999/xlink" width="342pt" height="78pt" viewBox="0 0 342 78" version="1.1">
<g id="surface1">
<path style="fill:none;stroke-width:0.3985;stroke-linecap:butt;stroke-linejoin:miter;stroke:rgb(0%,0%,0%);stroke-opacity:1;stroke-miterlimit:10;" d="M 11.338875 11.339399 L 11.338875 22.678676 L 22.678719 22.678676 L 22.678719 11.339399 Z M 11.338875 11.339399 " transform="matrix(1,0,0,-1.00005,114.083,84.695435)"/>
<path style="fill:none;stroke-width:0.3985;stroke-linecap:butt;stroke-linejoin:miter;stroke:rgb(0%,0%,0%);stroke-opacity:1;stroke-miterlimit:10;" d="M 22.678719 11.339399 L 22.678719 22.678676 L 34.014656 22.678676 L 34.014656 11.339399 Z M 22.678719 11.339399 " transform="matrix(1,0,0,-1.00005,114.083,84.695435)"/>
<path style="fill:none;stroke-width:0.3985;stroke-linecap:butt;stroke-linejoin:miter;stroke:rgb(0%,0%,0%);stroke-opacity:1;stroke-miterlimit:10;" d="M 34.014656 11.339399 L 34.014656 22.678676 L 45.3545 22.678676 L 45.3545 11.339399 Z M 34.014656 11.339399 " transform="matrix(1,0,0,-1.00005,114.083,84.695435)"/>
<path style="fill:none;stroke-width:0.3985;stroke-linecap:butt;stroke-linejoin:miter;stroke:rgb(0%,0%,0%);stroke-opacity:1;stroke-miterlimit:10;" d="M 45.3545 11.339399 L 45.3545 22.678676 L 56.694344 22.678676 L 56.694344 11.339399 Z M 45.3545 11.339399 " transform="matrix(1,0,0,-1.00005,114.083,84.695435)"/>
<path style="fill:none;stroke-width:0.3985;stroke-linecap:butt;stroke-linejoin:miter;stroke:rgb(0%,0%,0%);stroke-opacity:1;stroke-miterlimit:10;" d="M 56.694344 11.339399 L 56.694344 22.678676 L 68.030281 22.678676 L 68.030281 11.339399 Z M 56.694344 11.339399 " transform="matrix(1,0,0,-1.00005,114.083,84.695435)"/>
<path style="fill:none;stroke-width:0.3985;stroke-linecap:butt;stroke-linejoin:miter;stroke:rgb(0%,0%,0%);stroke-opacity:1;stroke-miterlimit:10;" d="M 68.030281 11.339399 L 68.030281 22.678676 L 79.370125 22.678676 L 79.370125 11.339399 Z M 68.030281 11.339399 " transform="matrix(1,0,0,-1.00005,114.083,84.695435)"/>
<path style="fill:none;stroke-width:0.3985;stroke-linecap:butt;stroke-linejoin:miter;stroke:rgb(0%,0%,0%);stroke-opacity:1;stroke-miterlimit:10;" d="M 79.370125 11.339399 L 79.370125 22.678676 L 90.709969 22.678676 L 90.709969 11.339399 Z M 79.370125 11.339399 " transform="matrix(1,0,0,-1.00005,114.083,84.695435)"/>
<path style="fill:none;stroke-width:0.3985;stroke-linecap:butt;stroke-linejoin:miter;stroke:rgb(0%,0%,0%);stroke-opacity:1;stroke-miterlimit:10;" d="M 90.709969 11.339399 L 90.709969 22.678676 L 102.045906 22.678676 L 102.045906 11.339399 Z M 90.709969 11.339399 " transform="matrix(1,0,0,-1.00005,114.083,84.695435)"/>
<path style="fill:none;stroke-width:0.3985;stroke-linecap:butt;stroke-linejoin:miter;stroke:rgb(0%,0%,0%);stroke-opacity:1;stroke-miterlimit:10;" d="M 11.338875 22.678676 L 11.338875 34.014047 L 22.678719 34.014047 L 22.678719 22.678676 Z M 11.338875 22.678676 " transform="matrix(1,0,0,-1.00005,114.083,84.695435)"/>
<path style="fill:none;stroke-width:0.3985;stroke-linecap:butt;stroke-linejoin:miter;stroke:rgb(0%,0%,0%);stroke-opacity:1;stroke-miterlimit:10;" d="M 22.678719 22.678676 L 22.678719 34.014047 L 34.014656 34.014047 L 34.014656 22.678676 Z M 22.678719 22.678676 " transform="matrix(1,0,0,-1.00005,114.083,84.695435)"/>
<path style="fill:none;stroke-width:0.3985;stroke-linecap:butt;stroke-linejoin:miter;stroke:rgb(0%,0%,0%);stroke-opacity:1;stroke-miterlimit:10;" d="M 34.014656 22.678676 L 34.014656 34.014047 L 45.3545 34.014047 L 45.3545 22.678676 Z M 34.014656 22.678676 " transform="matrix(1,0,0,-1.00005,114.083,84.695435)"/>
<path style="fill:none;stroke-width:0.3985;stroke-linecap:butt;stroke-linejoin:miter;stroke:rgb(0%,0%,0%);stroke-opacity:1;stroke-miterlimit:10;" d="M 45.3545 22.678676 L 45.3545 34.014047 L 56.694344 34.014047 L 56.694344 22.678676 Z M 45.3545 22.678676 " transform="matrix(1,0,0,-1.00005,114.083,84.695435)"/>
<path style="fill:none;stroke-width:0.3985;stroke-linecap:butt;stroke-linejoin:miter;stroke:rgb(0%,0%,0%);stroke-opacity:1;stroke-miterlimit:10;" d="M 56.694344 22.678676 L 56.694344 34.014047 L 68.030281 34.014047 L 68.030281 22.678676 Z M 56.694344 22.678676 " transform="matrix(1,0,0,-1.00005,114.083,84.695435)"/>
<path style="fill:none;stroke-width:0.3985;stroke-linecap:butt;stroke-linejoin:miter;stroke:rgb(0%,0%,0%);stroke-opacity:1;stroke-miterlimit:10;" d="M 68.030281 22.678676 L 68.030281 34.014047 L 79.370125 34.014047 L 79.370125 22.678676 Z M 68.030281 22.678676 " transform="matrix(1,0,0,-1.00005,114.083,84.695435)"/>
<path style="fill:none;stroke-width:0.3985;stroke-linecap:butt;stroke-linejoin:miter;stroke:rgb(0%,0%,0%);stroke-opacity:1;stroke-miterlimit:10;" d="M 11.338875 34.014047 L 11.338875 45.353323 L 22.678719 45.353323 L 22.678719 34.014047 Z M 11.338875 34.014047 " transform="matrix(1,0,0,-1.00005,114.083,84.695435)"/>
<path style="fill:none;stroke-width:0.3985;stroke-linecap:butt;stroke-linejoin:miter;stroke:rgb(0%,0%,0%);stroke-opacity:1;stroke-miterlimit:10;" d="M 22.678719 34.014047 L 22.678719 45.353323 L 34.014656 45.353323 L 34.014656 34.014047 Z M 22.678719 34.014047 " transform="matrix(1,0,0,-1.00005,114.083,84.695435)"/>
<path style="fill:none;stroke-width:0.3985;stroke-linecap:butt;stroke-linejoin:miter;stroke:rgb(0%,0%,0%);stroke-opacity:1;stroke-miterlimit:10;" d="M 34.014656 34.014047 L 34.014656 45.353323 L 45.3545 45.353323 L 45.3545 34.014047 Z M 34.014656 34.014047 " transform="matrix(1,0,0,-1.00005,114.083,84.695435)"/>
<path style="fill:none;stroke-width:0.3985;stroke-linecap:butt;stroke-linejoin:miter;stroke:rgb(0%,0%,0%);stroke-opacity:1;stroke-miterlimit:10;" d="M 45.3545 34.014047 L 45.3545 45.353323 L 56.694344 45.353323 L 56.694344 34.014047 Z M 45.3545 34.014047 " transform="matrix(1,0,0,-1.00005,114.083,84.695435)"/>
<path style="fill:none;stroke-width:0.3985;stroke-linecap:butt;stroke-linejoin:miter;stroke:rgb(0%,0%,0%);stroke-opacity:1;stroke-miterlimit:10;" d="M 56.694344 34.014047 L 56.694344 45.353323 L 68.030281 45.353323 L 68.030281 34.014047 Z M 56.694344 34.014047 " transform="matrix(1,0,0,-1.00005,114.083,84.695435)"/>
<path style="fill:none;stroke-width:0.3985;stroke-linecap:butt;stroke-linejoin:miter;stroke:rgb(0%,0%,0%);stroke-opacity:1;stroke-miterlimit:10;" d="M 68.030281 34.014047 L 68.030281 45.353323 L 79.370125 45.353323 L 79.370125 34.014047 Z M 68.030281 34.014047 " transform="matrix(1,0,0,-1.00005,114.083,84.695435)"/>
<path style="fill:none;stroke-width:0.3985;stroke-linecap:butt;stroke-linejoin:miter;stroke:rgb(0%,0%,0%);stroke-opacity:1;stroke-miterlimit:10;" d="M 11.338875 45.353323 L 11.338875 56.6926 L 22.678719 56.6926 L 22.678719 45.353323 Z M 11.338875 45.353323 " transform="matrix(1,0,0,-1.00005,114.083,84.695435)"/>
<path style="fill:none;stroke-width:0.3985;stroke-linecap:butt;stroke-linejoin:miter;stroke:rgb(0%,0%,0%);stroke-opacity:1;stroke-miterlimit:10;" d="M 22.678719 45.353323 L 22.678719 56.6926 L 34.014656 56.6926 L 34.014656 45.353323 Z M 22.678719 45.353323 " transform="matrix(1,0,0,-1.00005,114.083,84.695435)"/>
<path style="fill:none;stroke-width:0.3985;stroke-linecap:butt;stroke-linejoin:miter;stroke:rgb(0%,0%,0%);stroke-opacity:1;stroke-miterlimit:10;" d="M 34.014656 45.353323 L 34.014656 56.6926 L 45.3545 56.6926 L 45.3545 45.353323 Z M 34.014656 45.353323 " transform="matrix(1,0,0,-1.00005,114.083,84.695435)"/>
<path style="fill:none;stroke-width:0.3985;stroke-linecap:butt;stroke-linejoin:miter;stroke:rgb(0%,0%,0%);stroke-opacity:1;stroke-miterlimit:10;" d="M 11.338875 56.6926 L 11.338875 68.031877 L 22.678719 68.031877 L 22.678719 56.6926 Z M 11.338875 56.6926 " transform="matrix(1,0,0,-1.00005,114.083,84.695435)"/>
<path style="fill:none;stroke-width:0.3985;stroke-linecap:butt;stroke-linejoin:miter;stroke:rgb(0%,0%,0%);stroke-opacity:1;stroke-miterlimit:10;" d="M 22.678719 56.6926 L 22.678719 68.031877 L 34.014656 68.031877 L 34.014656 56.6926 Z M 22.678719 56.6926 " transform="matrix(1,0,0,-1.00005,114.083,84.695435)"/>
<path style="fill:none;stroke-width:0.3985;stroke-linecap:butt;stroke-linejoin:miter;stroke:rgb(0%,0%,0%);stroke-opacity:1;stroke-miterlimit:10;" d="M 34.014656 56.6926 L 34.014656 68.031877 L 45.3545 68.031877 L 45.3545 56.6926 Z M 34.014656 56.6926 " transform="matrix(1,0,0,-1.00005,114.083,84.695435)"/>
<path style="fill:none;stroke-width:0.3985;stroke-linecap:butt;stroke-linejoin:miter;stroke:rgb(0%,0%,0%);stroke-opacity:1;stroke-miterlimit:10;" d="M 11.338875 68.031877 L 11.338875 79.371154 L 22.678719 79.371154 L 22.678719 68.031877 Z M 11.338875 68.031877 " transform="matrix(1,0,0,-1.00005,114.083,84.695435)"/>
<path style="fill:none;stroke-width:0.3985;stroke-linecap:butt;stroke-linejoin:miter;stroke:rgb(97.499084%,97.499084%,97.499084%);stroke-opacity:1;stroke-miterlimit:10;" d="M -112.668937 7.820044 L 226.065438 7.820044 L 226.065438 82.894415 L -112.668937 82.894415 Z M -112.668937 7.820044 " transform="matrix(1,0,0,-1.00005,114.083,84.695435)"/>
</g>
</svg>
