<?xml version="1.0" encoding="UTF-8"?>
<svg xmlns="http://www.w3.org/2000/svg" xmlns:xlink="http://www.w3.org/1999/xlink" width="342pt" height="33pt" viewBox="0 0 342 33" version="1.1">
<g id="surface1">
<path style="fill:none;stroke-width:0.3985;stroke-linecap:butt;stroke-linejoin:miter;stroke:rgb(0%,0%,0%);stroke-opacity:1;stroke-miterlimit:10;" d="M 11.338875 11.339906 L 11.338875 22.675844 L 22.678719 22.675844 L 22.678719 11.339906 Z M 11.338875 11.339906 " transform="matrix(1,0,0,-1,114.083,39.336)"/>
<path style="fill:none;stroke-width:0.3985;stroke-linecap:butt;stroke-linejoin:miter;stroke:rgb(0%,0%,0%);stroke-opacity:1;stroke-miterlimit:10;" d="M 22.678719 11.339906 L 22.678719 22.675844 L 34.014656 22.675844 L 34.014656 11.339906 Z M 22.678719 11.339906 " transform="matrix(1,0,0,-1,114.083,39.336)"/>
<path style="fill:none;stroke-width:0.3985;stroke-linecap:butt;stroke-linejoin:miter;stroke:rgb(0%,0%,0%);stroke-opacity:1;stroke-miterlimit:10;" d="M 34.014656 11.339906 L 34.014656 22.675844 L 45.3545 22.675844 L 45.3545 11.339906 Z M 34.014656 11.339906 " transform="matrix(1,0,0,-1,114.083,39.336)"/>
<path style="fill:none;stroke-width:0.3985;stroke-linecap:butt;stroke-linejoin:miter;stroke:rgb(0%,0%,0%);stroke-opacity:1;stroke-miterlimit:10;" d="M 45.3545 11.339906 L 45.3545 22.675844 L 56.694344 22.675844 L 56.694344 11.339906 Z M 45.3545 11.339906 " transform="matrix(1,0,0,-1,114.083,39.336)"/>
<path style="fill:none;stroke-width:0.3985;stroke-linecap:butt;stroke-linejoin:miter;stroke:rgb(0%,0%,0%);stroke-opacity:1;stroke-miterlimit:10;" d="M 56.694344 11.339906 L 56.694344 22.675844 L 68.030281 22.675844 L 68.030281 11.339906 Z M 56.694344 11.339906 " transform="matrix(1,0,0,-1,114.083,39.336)"/>
<path style="fill:none;stroke-width:0.3985;stroke-linecap:butt;stroke-linejoin:miter;stroke:rgb(0%,0%,0%);stroke-opacity:1;stroke-miterlimit:10;" d="M 68.030281 11.339906 L 68.030281 22.675844 L 79.370125 22.675844 L 79.370125 11.339906 Z M 68.030281 11.339906 " transform="matrix(1,0,0,-1,114.083,39.336)"/>
<path style="fill:none;stroke-width:0.3985;stroke-linecap:butt;stroke-linejoin:miter;stroke:rgb(0%,0%,0%);stroke-opacity:1;stroke-miterlimit:10;" d="M 79.370125 11.339906 L 79.370125 22.675844 L 90.709969 22.675844 L 90.709969 11.339906 Z M 79.370125 11.339906 " transform="matrix(1,0,0,-1,114.083,39.336)"/>
<path style="fill:none;stroke-width:0.3985;stroke-linecap:butt;stroke-linejoin:miter;stroke:rgb(0%,0%,0%);stroke-opacity:1;stroke-miterlimit:10;" d="M 90.709969 11.339906 L 90.709969 22.675844 L 102.045906 22.675844 L 102.045906 11.339906 Z M 90.709969 11.339906 " transform="matrix(1,0,0,-1,114.083,39.336)"/>
<path style="fill:none;stroke-width:0.3985;stroke-linecap:butt;stroke-linejoin:miter;stroke:rgb(0%,0%,0%);stroke-opacity:1;stroke-miterlimit:10;" d="M 11.338875 22.675844 L 11.338875 34.015687 L 22.678719 34.015687 L 22.678719 22.675844 Z M 11.338875 22.675844 " transform="matrix(1,0,0,-1,114.083,39.336)"/>
<path style="fill:none;stroke-width:0.3985;stroke-linecap:butt;stroke-linejoin:miter;stroke:rgb(0%,0%,0%);stroke-opacity:1;stroke-miterlimit:10;" d="M 22.678719 22.675844 L 22.678719 34.015687 L 34.014656 34.015687 L 34.014656 22.675844 Z M 22.678719 22.675844 " transform="matrix(1,0,0,-1,114.083,39.336)"/>
<path style="fill:none;stroke-width:0.3985;stroke-linecap:butt;stroke-linejoin:miter;stroke:rgb(0%,0%,0%);stroke-opacity:1;stroke-miterlimit:10;" d="M 34.014656 22.675844 L 34.014656 34.015687 L 45.3545 34.015687 L 45.3545 22.675844 Z M 34.014656 22.675844 " transform="matrix(1,0,0,-1,114.083,39.336)"/>
<path style="fill:none;stroke-width:0.3985;stroke-linecap:butt;stroke-linejoin:miter;stroke:rgb(0%,0%,0%);stroke-opacity:1;stroke-miterlimit:10;" d="M 45.3545 22.675844 L 45.3545 34.015687 L 56.694344 34.015687 L 56.694344 22.675844 Z M 45.3545 22.675844 " transform="matrix(1,0,0,-1,114.083,39.336)"/>
<path style="fill:none;stroke-width:0.3985;stroke-linecap:butt;stroke-linejoin:miter;stroke:rgb(0%,0%,0%);stroke-opacity:1;stroke-miterlimit:10;" d="M 56.694344 22.675844 L 56.694344 34.015687 L 68.030281 34.015687 L 68.030281 22.675844 Z M 56.694344 22.675844 " transform="matrix(1,0,0,-1,114.083,39.336)"/>
<path style="fill:none;stroke-width:0.3985;stroke-linecap:butt;stroke-linejoin:miter;stroke:rgb(0%,0%,0%);stroke-opacity:1;stroke-miterlimit:10;" d="M 68.030281 22.675844 L 68.030281 34.015687 L 79.370125 34.015687 L 79.370125 22.675844 Z M 68.030281 22.675844 " transform="matrix(1,0,0,-1,114.083,39.336)"/>
<path style="fill:none;stroke-width:0.3985;stroke-linecap:butt;stroke-linejoin:miter;stroke:rgb(97.499084%,97.499084%,97.499084%);stroke-opacity:1;stroke-miterlimit:10;" d="M -112.668937 7.820375 L 226.065438 7.820375 L 226.065438 37.539125 L -112.668937 37.539125 Z M -112.668937 7.820375 " transform="matrix(1,0,0,-1,114.083,39.336)"/>
</g>
</svg>
