<svg xmlns="http://www.w3.org/2000/svg" xmlns:xlink="http://www.w3.org/1999/xlink" xmlns:inkscape="http://www.inkscape.org/namespaces/inkscape" version="1.1" width="342" height="78" viewBox="0 0 342 78">
<path transform="matrix(1.00003,0,0,-1.00005,131.09549,84.695438)" stroke-width=".3985" stroke-linecap="butt" stroke-miterlimit="10" stroke-linejoin="miter" fill="none" stroke="#000000" d="M11.33855 11.33855V22.6771H22.6771V11.33855ZM22.6771 22.6771"/>
<path transform="matrix(1.00003,0,0,-1.00005,131.09549,84.695438)" stroke-width=".3985" stroke-linecap="butt" stroke-miterlimit="10" stroke-linejoin="miter" fill="none" stroke="#000000" d="M22.6771 11.33855V22.6771H34.01564V11.33855ZM34.01564 22.6771"/>
<path transform="matrix(1.00003,0,0,-1.00005,131.09549,84.695438)" stroke-width=".3985" stroke-linecap="butt" stroke-miterlimit="10" stroke-linejoin="miter" fill="none" stroke="#000000" d="M34.01564 11.33855V22.6771H45.35419V11.33855ZM45.35419 22.6771"/>
<path transform="matrix(1.00003,0,0,-1.00005,131.09549,84.695438)" stroke-width=".3985" stroke-linecap="butt" stroke-miterlimit="10" stroke-linejoin="miter" fill="none" stroke="#000000" d="M45.35419 11.33855V22.6771H56.69275V11.33855ZM56.69275 22.6771"/>
<path transform="matrix(1.00003,0,0,-1.00005,131.09549,84.695438)" stroke-width=".3985" stroke-linecap="butt" stroke-miterlimit="10" stroke-linejoin="miter" fill="none" stroke="#000000" d="M56.69275 11.33855V22.6771H68.0313V11.33855ZM68.0313 22.6771"/>
<path transform="matrix(1.00003,0,0,-1.00005,131.09549,84.695438)" stroke-width=".3985" stroke-linecap="butt" stroke-miterlimit="10" stroke-linejoin="miter" fill="none" stroke="#000000" d="M11.33855 22.6771V34.01564H22.6771V22.6771ZM22.6771 34.01564"/>
<path transform="matrix(1.00003,0,0,-1.00005,131.09549,84.695438)" stroke-width=".3985" stroke-linecap="butt" stroke-miterlimit="10" stroke-linejoin="miter" fill="none" stroke="#000000" d="M22.6771 22.6771V34.01564H34.01564V22.6771ZM34.01564 34.01564"/>
<path transform="matrix(1.00003,0,0,-1.00005,131.09549,84.695438)" stroke-width=".3985" stroke-linecap="butt" stroke-miterlimit="10" stroke-linejoin="miter" fill="none" stroke="#000000" d="M34.01564 22.6771V34.01564H45.35419V22.6771ZM45.35419 34.01564"/>
<path transform="matrix(1.00003,0,0,-1.00005,131.09549,84.695438)" stroke-width=".3985" stroke-linecap="butt" stroke-miterlimit="10" stroke-linejoin="miter" fill="none" stroke="#000000" d="M45.35419 22.6771V34.01564H56.69275V22.6771ZM56.69275 34.01564"/>
<path transform="matrix(1.00003,0,0,-1.00005,131.09549,84.695438)" stroke-width=".3985" stroke-linecap="butt" stroke-miterlimit="10" stroke-linejoin="miter" fill="none" stroke="#000000" d="M11.33855 34.01564V45.35419H22.6771V34.01564ZM22.6771 45.35419"/>
<path transform="matrix(1.00003,0,0,-1.00005,131.09549,84.695438)" stroke-width=".3985" stroke-linecap="butt" stroke-miterlimit="10" stroke-linejoin="miter" fill="none" stroke="#000000" d="M22.6771 34.01564V45.35419H34.01564V34.01564ZM34.01564 45.35419"/>
<path transform="matrix(1.00003,0,0,-1.00005,131.09549,84.695438)" stroke-width=".3985" stroke-linecap="butt" stroke-miterlimit="10" stroke-linejoin="miter" fill="none" stroke="#000000" d="M34.01564 34.01564V45.35419H45.35419V34.01564ZM45.35419 45.35419"/>
<path transform="matrix(1.00003,0,0,-1.00005,131.09549,84.695438)" stroke-width=".3985" stroke-linecap="butt" stroke-miterlimit="10" stroke-linejoin="miter" fill="none" stroke="#000000" d="M45.35419 34.01564V45.35419H56.69275V34.01564ZM56.69275 45.35419"/>
<path transform="matrix(1.00003,0,0,-1.00005,131.09549,84.695438)" stroke-width=".3985" stroke-linecap="butt" stroke-miterlimit="10" stroke-linejoin="miter" fill="none" stroke="#000000" d="M11.33855 45.35419V56.69275H22.6771V45.35419ZM22.6771 56.69275"/>
<path transform="matrix(1.00003,0,0,-1.00005,131.09549,84.695438)" stroke-width=".3985" stroke-linecap="butt" stroke-miterlimit="10" stroke-linejoin="miter" fill="none" stroke="#000000" d="M22.6771 45.35419V56.69275H34.01564V45.35419ZM34.01564 56.69275"/>
<path transform="matrix(1.00003,0,0,-1.00005,131.09549,84.695438)" stroke-width=".3985" stroke-linecap="butt" stroke-miterlimit="10" stroke-linejoin="miter" fill="none" stroke="#000000" d="M34.01564 45.35419V56.69275H45.35419V45.35419ZM45.35419 56.69275"/>
<path transform="matrix(1.00003,0,0,-1.00005,131.09549,84.695438)" stroke-width=".3985" stroke-linecap="butt" stroke-miterlimit="10" stroke-linejoin="miter" fill="none" stroke="#000000" d="M45.35419 45.35419V56.69275H56.69275V45.35419ZM56.69275 56.69275"/>
<path transform="matrix(1.00003,0,0,-1.00005,131.09549,84.695438)" stroke-width=".3985" stroke-linecap="butt" stroke-miterlimit="10" stroke-linejoin="miter" fill="none" stroke="#000000" d="M11.33855 56.69275V68.0313H22.6771V56.69275ZM22.6771 68.0313"/>
<path transform="matrix(1.00003,0,0,-1.00005,131.09549,84.695438)" stroke-width=".3985" stroke-linecap="butt" stroke-miterlimit="10" stroke-linejoin="miter" fill="none" stroke="#000000" d="M22.6771 56.69275V68.0313H34.01564V56.69275ZM34.01564 68.0313"/>
<path transform="matrix(1.00003,0,0,-1.00005,131.09549,84.695438)" stroke-width=".3985" stroke-linecap="butt" stroke-miterlimit="10" stroke-linejoin="miter" fill="none" stroke="#000000" d="M11.33855 68.0313V79.36984H22.6771V68.0313ZM22.6771 79.36984"/>
<path transform="matrix(1.00003,0,0,-1.00005,131.09549,84.695438)" stroke-width=".3985" stroke-linecap="butt" stroke-miterlimit="10" stroke-linejoin="miter" fill="none" stroke="#000000" d="M22.6771 68.0313V79.36984H34.01564V68.0313ZM34.01564 79.36984"/>
<path transform="matrix(1.00003,0,0,-1.00005,131.09549,84.695438)" stroke-width=".3985" stroke-linecap="butt" stroke-miterlimit="10" stroke-linejoin="miter" fill="none" stroke="#f9f9f9" d="M-129.67949 7.8206H209.05464V82.89383H-129.67949Z"/>
</svg>
