<svg xmlns="http://www.w3.org/2000/svg" xmlns:xlink="http://www.w3.org/1999/xlink" version="1.1" width="341" height="247" viewBox="0 0 341 247">
<defs>
<path id="font_1_1" d="M.2939911 .64004519C.2939911 .66400149 .2939911 .6660156 .2709961 .6660156 .20899964 .60227969 .12098694 .60227969 .08898926 .60227969V.57128909C.10899353 .57128909 .16799927 .57128909 .21998596 .5972748V.07902527C.21998596 .042999269 .21699524 .0309906 .1269989 .0309906H.09498596V0C.12998963 .0029907227 .21699524 .0029907227 .25698854 .0029907227 .29699708 .0029907227 .38398744 .0029907227 .4189911 0V.0309906H.3869934C.29699708 .0309906 .2939911 .041992189 .2939911 .07902527V.64004519Z"/>
<path id="font_1_2" d="M.1269989 .07699585 .23298645 .18003845C.3889923 .31811524 .44898988 .3721466 .44898988 .47216798 .44898988 .5860901 .35899354 .6660156 .23699951 .6660156 .12399292 .6660156 .049987794 .57411196 .049987794 .48516847 .049987794 .4291687 .099990848 .4291687 .102996829 .4291687 .11999512 .4291687 .15499878 .44117738 .15499878 .48217774 .15499878 .5081787 .13699341 .5341797 .101989749 .5341797 .09399414 .5341797 .09199524 .5341797 .08898926 .5331726 .11199951 .59806826 .1659851 .63500979 .22399903 .63500979 .31498719 .63500979 .35798646 .5541382 .35798646 .47216798 .35798646 .39215089 .30799867 .31311036 .25299073 .25108338L.06098938 .036987306C.049987794 .025985718 .049987794 .023986817 .049987794 0H.42099L.44898988 .17404175H.42399598C.4189911 .14402771 .4119873 .1000061 .4019928 .084991458 .394989 .07699585 .32899476 .07699585 .30699159 .07699585H.1269989Z"/>
<path id="font_1_3" d="M.2899933 .35191346C.37199403 .37893678 .42999269 .4490509 .42999269 .52809146 .42999269 .6100464 .34199525 .6660156 .24598694 .6660156 .14498902 .6660156 .068984989 .60606387 .068984989 .53009036 .068984989 .49710084 .09098816 .47808839 .11999512 .47808839 .15098572 .47808839 .17098999 .50009158 .17098999 .5290985 .17098999 .57910159 .12399292 .57910159 .10899353 .57910159 .13999939 .62802127 .20599365 .64100649 .24198914 .64100649 .2829895 .64100649 .33799745 .6190338 .33799745 .5290985 .33799745 .51708987 .33599855 .45906068 .30999757 .4149933 .27999879 .36691285 .24598694 .36390687 .22099304 .36291505 .21299744 .36190797 .18899536 .35990907 .18199158 .35990907 .17399597 .35890199 .16699219 .35791017 .16699219 .3479004 .16699219 .33691407 .17399597 .33691407 .19099427 .33691407H.23498535C.31698609 .33691407 .35398866 .2686615 .35398866 .17037964 .35398866 .034469606 .2849884 .0055389406 .24099732 .0055389406 .19799805 .0055389406 .12298584 .022491456 .08799744 .08137512 .12298584 .07637024 .1539917 .09837341 .1539917 .1363678 .1539917 .17237854 .1269989 .19238281 .09799194 .19238281 .07398987 .19238281 .041992189 .17837525 .041992189 .1343689 .041992189 .043441774 .1349945-.022460938 .24398804-.022460938 .3659973-.022460938 .45700074 .06838989 .45700074 .17037964 .45700074 .252594 .3939972 .33088685 .2899933 .35191346Z"/>
<path id="font_1_4" d="M.2939911 .16503906V.07800293C.2939911 .041992189 .2919922 .0309906 .21798706 .0309906H.19699097V0C.23799134 .0029907227 .2899933 .0029907227 .33198548 .0029907227 .37399293 .0029907227 .4269867 .0029907227 .46798707 0V.0309906H.44699098C.37298585 .0309906 .37098695 .041992189 .37098695 .07800293V.16503906H.47099305V.19602967H.37098695V.65075686C.37098695 .67074587 .37098695 .6767578 .35499574 .6767578 .34599305 .6767578 .34298707 .6767578 .33499146 .66474917L.027999878 .19602967V.16503906H.2939911M.2999878 .19602967H.055999757L.2999878 .5688019V.19602967Z"/>
<path id="font_2_1" d="M.1789856 .114868167C.13899231 .047973634 .099990848 .033981325 .055999757 .0309906 .04399109 .02999878 .034988405 .02999878 .034988405 .010986328 .034988405 .004989624 .039993287 0 .04798889 0 .07499695 0 .10598755 .0029907227 .13398743 .0029907227 .16699219 .0029907227 .20199585 0 .23399353 0 .23999024 0 .25299073 0 .25299073 .018997193 .25299073 .02999878 .24398804 .0309906 .23699951 .0309906 .21398926 .032989503 .18998719 .04096985 .18998719 .06593323 .18998719 .077926639 .19599915 .088897708 .20399475 .102890018L.27999879 .23068238H.5309906C.5329895 .2097168 .5469971 .07392883 .5469971 .063949588 .5469971 .033981325 .49499513 .0309906 .47499085 .0309906 .46099855 .0309906 .45098878 .0309906 .45098878 .010986328 .45098878 0 .46299745 0 .46499635 0 .5059967 0 .548996 .0029907227 .58999636 .0029907227 .61499026 .0029907227 .6779938 0 .7029877 0 .70899966 0 .72099307 0 .72099307 .019989014 .72099307 .0309906 .71099856 .0309906 .69799807 .0309906 .6359863 .0309906 .6359863 .037979127 .6329956 .06694031L.57199099 .691803C.56999209 .71180728 .56999209 .7158203 .5529938 .7158203 .5369873 .7158203 .5329895 .7088165 .5269928 .69880679L.1789856 .114868167M.29899598 .26168824 .49598695 .5917816 .5279999 .26168824H.29899598Z"/>
<path id="font_2_4" d="M.37298585 .37835694C.35499574 .41537477 .32598878 .4423828 .2809906 .4423828 .1639862 .4423828 .039993287 .29533387 .039993287 .14929199 .039993287 .055267335 .09498596-.0107421879 .17298889-.0107421879 .19299317-.0107421879 .24299622-.0067443849 .30299378 .06427002 .31098939 .022247315 .34599305-.0107421879 .3939972-.0107421879 .42900086-.0107421879 .45199586 .012252808 .46798707 .044265748 .4850006 .08027649 .49798585 .14129639 .49798585 .14329529 .49798585 .1532898 .4889984 .1532898 .48599244 .1532898 .47599793 .1532898 .47499085 .14929199 .47200013 .13528443 .45498658 .07026672 .43699647 .011245728 .3959961 .011245728 .36898805 .011245728 .3659973 .037261964 .3659973 .057266237 .3659973 .07926941 .36799623 .08728027 .3789978 .13128662 .3899994 .17329407 .3919983 .18330384 .40098573 .22131348L.43699647 .36135865C.44400025 .38935853 .44400025 .39135743 .44400025 .39537049 .44400025 .41236878 .43199159 .42237855 .4149933 .42237855 .3909912 .42237855 .37599183 .4003601 .37298585 .37835694M.30799867 .119277957C.30299378 .10127258 .30299378 .09927368 .28799439 .08227539 .24398804 .027252198 .20298767 .011245728 .1749878 .011245728 .125 .011245728 .11099243 .06626892 .11099243 .105285648 .11099243 .1552887 .14299011 .27833558 .1659851 .32434083 .19699097 .38336183 .24198914 .42037965 .28199769 .42037965 .34700013 .42037965 .36099244 .3383484 .36099244 .33235169 .36099244 .32633973 .35899354 .32034303 .35798646 .31533814L.30799867 .119277957Z"/>
<path id="font_2_5" d="M.23899842 .68333438C.23899842 .6843262 .23899842 .69433596 .22599793 .69433596 .20298767 .69433596 .12998963 .6863251 .10398865 .6843262 .09599304 .68333438 .084991458 .6823273 .084991458 .6643219 .084991458 .6523285 .09399414 .6523285 .10899353 .6523285 .15699768 .6523285 .15899658 .6453247 .15899658 .6353302 .15899658 .6283264 .1499939 .5943451 .14498902 .573349L.06298828 .24731446C.050994874 .1973114 .04699707 .18130493 .04699707 .14628601 .04699707 .05126953 .099990848-.0107421879 .17399597-.0107421879 .2919922-.0107421879 .4149933 .1382904 .4149933 .28233338 .4149933 .37335206 .3619995 .4423828 .28199769 .4423828 .23599243 .4423828 .19499207 .41337586 .16499329 .38235475L.23899842 .68333438M.14498902 .30534364C.15098572 .3273468 .15098572 .3293457 .1599884 .3403473 .20899964 .405365 .2539978 .42037965 .27999879 .42037965 .31599427 .42037965 .34298707 .3903656 .34298707 .32633973 .34298707 .26733399 .30999757 .15229798 .2919922 .11428833 .25898744 .04725647 .21299744 .011245728 .17399597 .011245728 .13999939 .011245728 .10699463 .038253786 .10699463 .11227417 .10699463 .13128662 .10699463 .15029907 .12298584 .21331787L.14498902 .30534364Z"/>
<path id="font_2_6" d="M.3959961 .37998963C.37998963 .37998963 .3659973 .37998963 .35198976 .36598207 .33599855 .35098268 .33399964 .33398438 .33399964 .3269806 .33399964 .30297853 .35198976 .2919922 .37098695 .2919922 .3999939 .2919922 .4269867 .315979 .4269867 .35598756 .4269867 .40522767 .37998963 .4423828 .30899049 .4423828 .17399597 .4423828 .040985109 .2989807 .040985109 .15811157 .040985109 .06819153 .09899902-.0107421879 .20298767-.0107421879 .34599305-.0107421879 .42999269 .09516907 .42999269 .107162479 .42999269 .11315918 .42399598 .120147708 .41799928 .120147708 .41299439 .120147708 .41099549 .1181488 .40499879 .1101532 .32598878 .011245728 .21699524 .011245728 .20498657 .011245728 .14199829 .011245728 .114990238 .06021118 .114990238 .120147708 .114990238 .1611023 .1349945 .25801087 .16899109 .31999208 .19999695 .37698365 .25498963 .42037965 .30999757 .42037965 .34399415 .42037965 .38198854 .40724183 .3959961 .37998963Z"/>
<path id="font_2_2" d="M.1599884 .07795715C.1499939 .038986207 .147995 .0309906 .068984989 .0309906 .051986696 .0309906 .041992189 .0309906 .041992189 .010986328 .041992189 0 .050994874 0 .068984989 0H.42599488C.58399966 0 .70199587 .11791992 .70199587 .21585083 .70199587 .28778077 .6439972 .3457489 .5469971 .35673524 .651001 .37573243 .7559967 .44970704 .7559967 .5446625 .7559967 .6186218 .6899872 .6826172 .56999209 .6826172H.23399353C.21499634 .6826172 .20498657 .6826172 .20498657 .6626129 .20498657 .6516113 .21398926 .6516113 .23298645 .6516113 .23498535 .6516113 .2539978 .6516113 .2709961 .6496124 .2889862 .6476135 .2979889 .64660647 .2979889 .6336212 .2979889 .6296234 .29699708 .62661746 .2939911 .614624L.1599884 .07795715M.31098939 .36573792 .37298585 .6136322C.38198854 .64860537 .38398744 .6516113 .4269867 .6516113H.55599978C.6439972 .6516113 .6649933 .5926361 .6649933 .5486603 .6649933 .46069337 .57899478 .36573792 .45700074 .36573792H.31098939M.2659912 .0309906C.2519989 .0309906 .25 .0309906 .24398804 .03199768 .23399353 .032989503 .23098755 .033996583 .23098755 .04197693 .23098755 .04498291 .23098755 .04698181 .23599243 .064971927L.30499269 .34375H.49398805C.58999636 .34375 .60899356 .2698059 .60899356 .22683716 .60899356 .12791443 .519989 .0309906 .4019928 .0309906H.2659912Z"/>
<path id="font_2_9" d="M.20599365 .3996582H.2999878C.31999208 .3996582 .32998658 .3996582 .32998658 .41966249 .32998658 .43066407 .31999208 .43066407 .3019867 .43066407H.21398926C.25 .5724945 .25498963 .59246829 .25498963 .59846499 .25498963 .61546328 .24299622 .62545779 .22599793 .62545779 .22299195 .62545779 .19499207 .62446597 .18598938 .58947756L.14698792 .43066407H.052993776C.032989503 .43066407 .022994996 .43066407 .022994996 .4116516 .022994996 .3996582 .0309906 .3996582 .050994874 .3996582H.13899231C.066986087 .11608887 .06298828 .099121097 .06298828 .08114624 .06298828 .02722168 .100997928-.0107421879 .15499878-.0107421879 .25698854-.0107421879 .31399537 .13505554 .31399537 .14305115 .31399537 .1530304 .30599977 .1530304 .3019867 .1530304 .29299928 .1530304 .2919922 .15003968 .2869873 .13905335 .24398804 .035217287 .19099427 .011245728 .15699768 .011245728 .13598633 .011245728 .12599182 .024230957 .12599182 .057174684 .12599182 .08114624 .12799073 .088134769 .13198853 .10510254L.20599365 .3996582Z"/>
<path id="font_2_10" d="M.34999085 .056259157C.36099244 .015258789 .3959961-.0107421879 .43899537-.0107421879 .47399903-.0107421879 .49699403 .012252808 .5130005 .044265748 .5299988 .08027649 .54299929 .14129639 .54299929 .14329529 .54299929 .1532898 .5339966 .1532898 .5309906 .1532898 .5209961 .1532898 .519989 .14929199 .5169983 .13528443 .5029907 .07926941 .48399354 .011245728 .44198609 .011245728 .42099 .011245728 .41099549 .024261475 .41099549 .057266237 .41099549 .07926941 .4229889 .12628174 .43099977 .16130066L.45899964 .2693329C.46199037 .28433229 .47200013 .32234193 .47599793 .3373413 .48098756 .36035157 .4909973 .3983612 .4909973 .40437318 .4909973 .42237855 .47698976 .43138124 .46199037 .43138124 .45700074 .43138124 .43099977 .43037416 .4229889 .3963623 .4039917 .323349 .3600006 .14828491 .34799195 .09527588 .34700013 .091278079 .30699159 .011245728 .23399353 .011245728 .18199158 .011245728 .17199707 .056259157 .17199707 .09327698 .17199707 .14929199 .19999695 .22831726 .22599793 .29733277 .23799134 .3273468 .24299622 .34135438 .24299622 .36035157 .24299622 .405365 .21099854 .4423828 .16099549 .4423828 .06599426 .4423828 .0289917 .29733277 .0289917 .28833009 .0289917 .27833558 .038986207 .27833558 .040985109 .27833558 .050994874 .27833558 .051986696 .28033448 .056991579 .29634095 .08198547 .38336183 .11999512 .42037965 .1579895 .42037965 .16699219 .42037965 .18299866 .41937257 .18299866 .38735963 .18299866 .36335755 .17199707 .3343506 .1659851 .31933595 .1289978 .2203064 .10798645 .15829468 .10798645 .10928345 .10798645 .014251709 .1769867-.0107421879 .23098755-.0107421879 .29699708-.0107421879 .33299256 .03425598 .34999085 .056259157Z"/>
<path id="font_2_11" d="M.46798707 .37236024C.46798707 .42637635 .44198609 .4423828 .42399598 .4423828 .39898683 .4423828 .375 .41636659 .375 .3943634 .375 .38136292 .37998963 .3753662 .3909912 .36434938 .4119873 .3443451 .4249878 .31834413 .4249878 .28233338 .4249878 .24032593 .3639984 .011245728 .24699402 .011245728 .19599915 .011245728 .17298889 .04626465 .17298889 .09828186 .17298889 .15429688 .19999695 .22731018 .23098755 .31033326 .23799134 .3273468 .24299622 .34135438 .24299622 .36035157 .24299622 .405365 .21099854 .4423828 .16099549 .4423828 .066986087 .4423828 .0289917 .29733277 .0289917 .28833009 .0289917 .27833558 .038986207 .27833558 .040985109 .27833558 .050994874 .27833558 .051986696 .28033448 .056991579 .29634095 .085998538 .39736939 .1289978 .42037965 .1579895 .42037965 .1659851 .42037965 .18299866 .42037965 .18299866 .3883667 .18299866 .36335755 .17298889 .3363495 .1659851 .31834413 .12199402 .20230103 .10899353 .15629578 .10899353 .11328125 .10899353 .0052490236 .19699097-.0107421879 .24299622-.0107421879 .41099549-.0107421879 .46798707 .32034303 .46798707 .37236024Z"/>
<path id="font_2_3" d="M.7599945 .69506838C.7599945 .69807437 .7579956 .7050781 .7489929 .7050781 .74598696 .7050781 .7449951 .70407107 .73399356 .69306948L.6639862 .61602786C.6549988 .6300354 .60899356 .7050781 .49798585 .7050781 .2749939 .7050781 .049987794 .48391725 .049987794 .25172425 .049987794 .08659363 .16799927-.022460938 .32099916-.022460938 .4079895-.022460938 .48399354 .017532349 .5369873 .063583377 .6299896 .14564514 .6469879 .2367096 .6469879 .23971558 .6469879 .24972534 .6369934 .24972534 .6349945 .24972534 .6289978 .24972534 .6239929 .24772644 .621994 .23971558 .61299136 .21069336 .58999636 .13963318 .5209961 .081588748 .45199586 .025543213 .3889923 .008529663 .33699037 .008529663 .24699402 .008529663 .14099121 .060577394 .14099121 .21670532 .14099121 .27374269 .1619873 .43588258 .2619934 .55296328 .32299806 .62402346 .4169922 .67407229 .5059967 .67407229 .60798647 .67407229 .6669922 .5970001 .6669922 .48091126 .6669922 .44088746 .6639862 .43988038 .6639862 .4298706 .6639862 .41986085 .6749878 .41986085 .67900088 .41986085 .69200137 .41986085 .69200137 .42185975 .69699099 .43988038L.7599945 .69506838Z"/>
<path id="font_2_7" d="M.36698915 .3996582H.45298768C.47299195 .3996582 .48298646 .3996582 .48298646 .41966249 .48298646 .43066407 .47299195 .43066407 .45599366 .43066407H.37298585L.3939972 .5449524C.397995 .5660095 .4119873 .6370239 .41799928 .6490326 .4269867 .66804507 .44400025 .68307498 .46499635 .68307498 .46899415 .68307498 .49499513 .68307498 .5139923 .66503909 .46998597 .661026 .45999146 .6260376 .45999146 .6110382 .45999146 .58802798 .47799684 .57603457 .49699403 .57603457 .522995 .57603457 .5519867 .5980377 .5519867 .6360321 .5519867 .6820679 .5059967 .7050781 .46499635 .7050781 .43099977 .7050781 .36799623 .68707278 .33799745 .58802798 .33198548 .56700137 .32899476 .5569763 .30499269 .43066407H.23599243C.21699524 .43066407 .20599365 .43066407 .20599365 .4116516 .20599365 .3996582 .21499634 .3996582 .23399353 .3996582H.2999878L.22499085 .0048828127C.20698548-.09207153 .18998719-.18309021 .13798523-.18309021 .13398743-.18309021 .10899353-.18309021 .08999634-.16506958 .13598633-.1620636 .14498902-.12606812 .14498902-.111068729 .14498902-.08807373 .1269989-.07606506 .10798645-.07606506 .08198547-.07606506 .052993776-.09806824 .052993776-.13606262 .052993776-.18109131 .09700012-.20507813 .13798523-.20507813 .19299317-.20507813 .23298645-.14607239 .25099183-.108062747 .2829895-.04508972 .30599977 .07583618 .30699159 .082839969L.36698915 .3996582Z"/>
<path id="font_2_8" d="M.47099305 .3773346C.47200013 .3833313 .47399903 .38833619 .47399903 .39535523 .47399903 .41236878 .46199037 .42237855 .44499208 .42237855 .43499757 .42237855 .4079895 .41537477 .4039917 .3793335 .38598634 .41636659 .35099793 .4423828 .31098939 .4423828 .19699097 .4423828 .07299805 .30226136 .07299805 .15812683 .07299805 .059020997 .13398743 0 .20599365 0 .2649994 0 .31199647 .04701233 .32199098 .058029176L.32299806 .057022096C.3019867-.031982423 .2899933-.07295227 .2899933-.07495117 .28599549-.08395386 .2519989-.18309021 .1459961-.18309021 .1269989-.18309021 .09399414-.18206787 .06599426-.17297364 .09599304-.16394043 .10699463-.13793946 .10699463-.12094116 .10699463-.10494995 .09599304-.0859375 .068984989-.0859375 .04699707-.0859375 .01499939-.10394287 .01499939-.14395142 .01499939-.18508911 .051986696-.20507813 .147995-.20507813 .272995-.20507813 .34498597-.12693787 .3600006-.06695557L.47099305 .3773346M.34098817 .12809754C.33499146 .10206604 .31199647 .077041629 .2899933 .058029176 .2689972 .040008546 .23799134 .021987915 .20899964 .021987915 .15899658 .021987915 .14399719 .074035648 .14399719 .11407471 .14399719 .16212464 .17298889 .28024293 .19999695 .33128358 .22698975 .38034059 .269989 .42037965 .31199647 .42037965 .37799073 .42037965 .3919983 .33929444 .3919983 .33428956 .3919983 .32928468 .3899994 .3232727 .3889923 .3192749L.34098817 .12809754Z"/>
</defs>
<use data-text="1" xlink:href="#font_1_1" transform="matrix(9.963397,0,0,-9.962799,45.73922,105.88379)"/>
<use data-text="2" xlink:href="#font_1_2" transform="matrix(9.963397,0,0,-9.962799,45.73922,77.536228)"/>
<use data-text="3" xlink:href="#font_1_3" transform="matrix(9.963397,0,0,-9.962799,50.62661,49.189668)"/>
<use data-text="4" xlink:href="#font_1_4" transform="matrix(9.963397,0,0,-9.962799,78.975879,63.36293)"/>
<path transform="matrix(1.00008,0,0,-1.00002,15.237778,244.41057)" stroke-width=".3985" stroke-linecap="butt" stroke-miterlimit="10" stroke-linejoin="miter" fill="none" stroke="#000000" d="M72.23822 170.08086C72.23822 197.56415 58.93321 219.84311 42.5202 219.84311 26.1072 219.84311 12.80219 197.56415 12.80219 170.08086 12.80219 142.59757 26.1072 120.31859 42.5202 120.31859 58.93321 120.31859 72.23822 142.59757 72.23822 170.08086ZM42.5202 170.08086"/>
<use data-text="A" xlink:href="#font_2_1" transform="matrix(9.963397,0,0,-9.962799,21.10025,45.138566)"/>
<use data-text="a" xlink:href="#font_2_4" transform="matrix(9.963397,0,0,-9.962799,164.02368,62.297929)"/>
<use data-text="b" xlink:href="#font_2_5" transform="matrix(9.963397,0,0,-9.962799,174.01648,49.43866)"/>
<use data-text="c" xlink:href="#font_2_6" transform="matrix(9.963397,0,0,-9.962799,178.19782,90.644489)"/>
<path transform="matrix(1.00008,0,0,-1.00002,15.237778,244.41057)" stroke-width=".3985" stroke-linecap="butt" stroke-miterlimit="10" stroke-linejoin="miter" fill="none" stroke="#000000" d="M185.62546 177.16754C185.62546 199.11569 172.32045 216.90767 155.90744 216.90767 139.49443 216.90767 126.18942 199.11569 126.18942 177.16754 126.18942 155.21939 139.49443 137.42742 155.90744 137.42742 172.32045 137.42742 185.62546 155.21939 185.62546 177.16754ZM155.90744 177.16754"/>
<use data-text="B" xlink:href="#font_2_2" transform="matrix(9.963397,0,0,-9.962799,198.62345,39.77446)"/>
<use data-text="t" xlink:href="#font_2_9" transform="matrix(9.963397,0,0,-9.962799,277.41975,77.39023)"/>
<use data-text="u" xlink:href="#font_2_10" transform="matrix(9.963397,0,0,-9.962799,271.8103,48.123628)"/>
<use data-text="v" xlink:href="#font_2_11" transform="matrix(9.963397,0,0,-9.962799,286.50148,90.644489)"/>
<path transform="matrix(1.00008,0,0,-1.00002,15.237778,244.41057)" stroke-width=".3985" stroke-linecap="butt" stroke-miterlimit="10" stroke-linejoin="miter" fill="none" stroke="#000000" d="M299.0127 177.16754C299.0127 199.11569 285.7077 216.90767 269.29469 216.90767 252.88167 216.90767 239.57666 199.11569 239.57666 177.16754 239.57666 155.21939 252.88167 137.42742 269.29469 137.42742 285.7077 137.42742 299.0127 155.21939 299.0127 177.16754ZM269.29469 177.16754"/>
<use data-text="C" xlink:href="#font_2_3" transform="matrix(9.963397,0,0,-9.962799,312.01954,39.77446)"/>
<use data-text="f" xlink:href="#font_2_7" transform="matrix(9.963397,0,0,-9.962799,111.484477,65.34898)"/>
<use data-text="g" xlink:href="#font_2_8" transform="matrix(9.963397,0,0,-9.962799,225.30059,65.34898)"/>
<path transform="matrix(1.00008,0,0,-1.00002,15.237778,244.41057)" d="M44.51276 141.73404C44.51276 142.83452 43.62067 143.7266 42.5202 143.7266 41.41972 143.7266 40.52765 142.83452 40.52765 141.73404 40.52765 140.63358 41.41972 139.74149 42.5202 139.74149 43.62067 139.74149 44.51276 140.63358 44.51276 141.73404ZM42.5202 141.73404"/>
<path transform="matrix(1.00008,0,0,-1.00002,15.237778,244.41057)" d="M44.51276 170.08086C44.51276 171.18132 43.62067 172.07341 42.5202 172.07341 41.41972 172.07341 40.52765 171.18132 40.52765 170.08086 40.52765 168.98038 41.41972 168.0883 42.5202 168.0883 43.62067 168.0883 44.51276 168.98038 44.51276 170.08086ZM42.5202 170.08086"/>
<path transform="matrix(1.00008,0,0,-1.00002,15.237778,244.41057)" d="M30.33936 198.42766C30.33936 199.52814 29.44728 200.42021 28.3468 200.42021 27.24634 200.42021 26.35425 199.52814 26.35425 198.42766 26.35425 197.3272 27.24634 196.4351 28.3468 196.4351 29.44728 196.4351 30.33936 197.3272 30.33936 198.42766ZM28.3468 198.42766"/>
<path transform="matrix(1.00008,0,0,-1.00002,15.237778,244.41057)" d="M58.68617 184.25424C58.68617 185.35472 57.79408 186.2468 56.69362 186.2468 55.59314 186.2468 54.70107 185.35472 54.70107 184.25424 54.70107 183.15378 55.59314 182.26169 56.69362 182.26169 57.79408 182.26169 58.68617 183.15378 58.68617 184.25424ZM56.69362 184.25424"/>
<path transform="matrix(1.00008,0,0,-1.00002,15.237778,244.41057)" d="M143.7266 184.25424C143.7266 185.35472 142.83452 186.2468 141.73404 186.2468 140.63358 186.2468 139.74149 185.35472 139.74149 184.25424 139.74149 183.15378 140.63358 182.26169 141.73404 182.26169 142.83452 182.26169 143.7266 183.15378 143.7266 184.25424ZM141.73404 184.25424"/>
<path transform="matrix(1.00008,0,0,-1.00002,15.237778,244.41057)" d="M172.07341 198.42766C172.07341 199.52814 171.18132 200.42021 170.08086 200.42021 168.98038 200.42021 168.0883 199.52814 168.0883 198.42766 168.0883 197.3272 168.98038 196.4351 170.08086 196.4351 171.18132 196.4351 172.07341 197.3272 172.07341 198.42766ZM170.08086 198.42766"/>
<path transform="matrix(1.00008,0,0,-1.00002,15.237778,244.41057)" d="M157.9 155.90744C157.9 157.0079 157.0079 157.9 155.90744 157.9 154.80696 157.9 153.91489 157.0079 153.91489 155.90744 153.91489 154.80696 154.80696 153.91489 155.90744 153.91489 157.0079 153.91489 157.9 154.80696 157.9 155.90744ZM155.90744 155.90744"/>
<path transform="matrix(1.00008,0,0,-1.00002,15.237778,244.41057)" d="M257.11384 170.08086C257.11384 171.18132 256.22178 172.07341 255.12128 172.07341 254.02082 172.07341 253.12873 171.18132 253.12873 170.08086 253.12873 168.98038 254.02082 168.0883 255.12128 168.0883 256.22178 168.0883 257.11384 168.98038 257.11384 170.08086ZM255.12128 170.08086"/>
<path transform="matrix(1.00008,0,0,-1.00002,15.237778,244.41057)" d="M271.28724 198.42766C271.28724 199.52814 270.39518 200.42021 269.29469 200.42021 268.1942 200.42021 267.30213 199.52814 267.30213 198.42766 267.30213 197.3272 268.1942 196.4351 269.29469 196.4351 270.39518 196.4351 271.28724 197.3272 271.28724 198.42766ZM269.29469 198.42766"/>
<path transform="matrix(1.00008,0,0,-1.00002,15.237778,244.41057)" d="M285.46067 155.90744C285.46067 157.0079 284.56858 157.9 283.4681 157.9 282.3676 157.9 281.47554 157.0079 281.47554 155.90744 281.47554 154.80696 282.3676 153.91489 283.4681 153.91489 284.56858 153.91489 285.46067 154.80696 285.46067 155.90744ZM283.4681 155.90744"/>
<path transform="matrix(1.00008,0,0,-1.00002,15.237778,244.41057)" stroke-width=".3985" stroke-linecap="butt" stroke-miterlimit="10" stroke-linejoin="miter" fill="none" stroke="#000000" d=""/>
<path transform="matrix(1.00008,0,0,-1.00002,15.237778,244.41057)" stroke-width=".3985" stroke-linecap="butt" stroke-miterlimit="10" stroke-linejoin="miter" fill="none" stroke="#000000" d="M46.04002 140.32717C83.21555 125.45634 125.45634 143.5589 138.62519 176.47956"/>
<path transform="matrix(.3714097,-.9284586,-.92851427,-.37138746,153.87404,67.927478)" d="M3.7613 0C3.2994 .1127 1.26901 .75136 0 1.44638V-1.44638C1.26901-.75136 3.2994-.1127 3.7613 0Z"/>
<path transform="matrix(.3714097,-.9284586,-.92851427,-.37138746,153.87404,67.927478)" stroke-width=".3985" stroke-linecap="butt" stroke-miterlimit="10" stroke-linejoin="miter" fill="none" stroke="#000000" d="M3.7613 0C3.2994 .1127 1.26901 .75136 0 1.44638V-1.44638C1.26901-.75136 3.2994-.1127 3.7613 0Z"/>
<path transform="matrix(1.00008,0,0,-1.00002,15.237778,244.41057)" stroke-width=".3985" stroke-linecap="butt" stroke-miterlimit="10" stroke-linejoin="miter" fill="none" stroke="#000000" d=""/>
<path transform="matrix(1.00008,0,0,-1.00002,15.237778,244.41057)" stroke-width=".3985" stroke-linecap="butt" stroke-miterlimit="10" stroke-linejoin="miter" fill="none" stroke="#000000" d="M46.04002 167.84198C87.2321 141.62709 141.62709 153.71576 165.38162 191.04177"/>
<path transform="matrix(.5369129,-.84361687,-.84366747,-.53688076,180.63262,53.364976)" d="M3.7613 0C3.2994 .1127 1.26901 .75136 0 1.44638V-1.44638C1.26901-.75136 3.2994-.1127 3.7613 0Z"/>
<path transform="matrix(.5369129,-.84361687,-.84366747,-.53688076,180.63262,53.364976)" stroke-width=".3985" stroke-linecap="butt" stroke-miterlimit="10" stroke-linejoin="miter" fill="none" stroke="#000000" d="M3.7613 0C3.2994 .1127 1.26901 .75136 0 1.44638V-1.44638C1.26901-.75136 3.2994-.1127 3.7613 0Z"/>
<path transform="matrix(1.00008,0,0,-1.00002,15.237778,244.41057)" stroke-width=".3985" stroke-linecap="butt" stroke-miterlimit="10" stroke-linejoin="miter" fill="none" stroke="#000000" d=""/>
<path transform="matrix(1.00008,0,0,-1.00002,15.237778,244.41057)" stroke-width=".3985" stroke-linecap="butt" stroke-miterlimit="10" stroke-linejoin="miter" fill="none" stroke="#000000" d="M31.86398 201.94748C69.00758 239.09108 129.42008 239.09108 163.32312 205.18805"/>
<path transform="matrix(.70715656,.70711418,.70715656,-.70711418,178.57396,39.218416)" d="M3.7613 0C3.2994 .1127 1.26901 .75136 0 1.44638V-1.44638C1.26901-.75136 3.2994-.1127 3.7613 0Z"/>
<path transform="matrix(.70715656,.70711418,.70715656,-.70711418,178.57396,39.218416)" stroke-width=".3985" stroke-linecap="butt" stroke-miterlimit="10" stroke-linejoin="miter" fill="none" stroke="#000000" d="M3.7613 0C3.2994 .1127 1.26901 .75136 0 1.44638V-1.44638C1.26901-.75136 3.2994-.1127 3.7613 0Z"/>
<path transform="matrix(1.00008,0,0,-1.00002,15.237778,244.41057)" stroke-width=".3985" stroke-linecap="butt" stroke-miterlimit="10" stroke-linejoin="miter" fill="none" stroke="#000000" d=""/>
<path transform="matrix(1.00008,0,0,-1.00002,15.237778,244.41057)" stroke-width=".3985" stroke-linecap="butt" stroke-miterlimit="10" stroke-linejoin="miter" fill="none" stroke="#000000" d="M59.42795 187.77407C85.27966 221.00928 133.32582 227.01372 162.94377 203.97563"/>
<path transform="matrix(.78936317,.6139623,.6139991,-.7893158,178.19458,40.430849)" d="M3.7613 0C3.2994 .1127 1.26901 .75136 0 1.44638V-1.44638C1.26901-.75136 3.2994-.1127 3.7613 0Z"/>
<path transform="matrix(.78936317,.6139623,.6139991,-.7893158,178.19458,40.430849)" stroke-width=".3985" stroke-linecap="butt" stroke-miterlimit="10" stroke-linejoin="miter" fill="none" stroke="#000000" d="M3.7613 0C3.2994 .1127 1.26901 .75136 0 1.44638V-1.44638C1.26901-.75136 3.2994-.1127 3.7613 0Z"/>
<path transform="matrix(1.00008,0,0,-1.00002,15.237778,244.41057)" stroke-width=".3985" stroke-linecap="butt" stroke-miterlimit="10" stroke-linejoin="miter" fill="none" stroke="#000000" d=""/>
<path transform="matrix(1.00008,0,0,-1.00002,15.237778,244.41057)" stroke-width=".3985" stroke-linecap="butt" stroke-miterlimit="10" stroke-linejoin="miter" fill="none" stroke="#000000" d="M144.46837 180.73442C170.3201 147.49922 218.36626 141.4948 247.98419 164.53287"/>
<path transform="matrix(.78936317,-.6139623,-.6139991,-.7893158,263.24183,79.874408)" d="M3.7613 0C3.2994 .1127 1.26901 .75136 0 1.44638V-1.44638C1.26901-.75136 3.2994-.1127 3.7613 0Z"/>
<path transform="matrix(.78936317,-.6139623,-.6139991,-.7893158,263.24183,79.874408)" stroke-width=".3985" stroke-linecap="butt" stroke-miterlimit="10" stroke-linejoin="miter" fill="none" stroke="#000000" d="M3.7613 0C3.2994 .1127 1.26901 .75136 0 1.44638V-1.44638C1.26901-.75136 3.2994-.1127 3.7613 0Z"/>
<path transform="matrix(1.00008,0,0,-1.00002,15.237778,244.41057)" stroke-width=".3985" stroke-linecap="butt" stroke-miterlimit="10" stroke-linejoin="miter" fill="none" stroke="#000000" d=""/>
<path transform="matrix(1.00008,0,0,-1.00002,15.237778,244.41057)" stroke-width=".3985" stroke-linecap="butt" stroke-miterlimit="10" stroke-linejoin="miter" fill="none" stroke="#000000" d="M173.59803 201.94748C199.01663 227.36609 240.3589 227.36609 262.53694 205.18805"/>
<path transform="matrix(.70715656,.70711418,.70715656,-.70711418,277.79573,39.218416)" d="M3.7613 0C3.2994 .1127 1.26901 .75136 0 1.44638V-1.44638C1.26901-.75136 3.2994-.1127 3.7613 0Z"/>
<path transform="matrix(.70715656,.70711418,.70715656,-.70711418,277.79573,39.218416)" stroke-width=".3985" stroke-linecap="butt" stroke-miterlimit="10" stroke-linejoin="miter" fill="none" stroke="#000000" d="M3.7613 0C3.2994 .1127 1.26901 .75136 0 1.44638V-1.44638C1.26901-.75136 3.2994-.1127 3.7613 0Z"/>
<path transform="matrix(1.00008,0,0,-1.00002,15.237778,244.41057)" stroke-width=".3985" stroke-linecap="butt" stroke-miterlimit="10" stroke-linejoin="miter" fill="none" stroke="#000000" d=""/>
<path transform="matrix(1.00008,0,0,-1.00002,15.237778,244.41057)" stroke-width=".3985" stroke-linecap="butt" stroke-miterlimit="10" stroke-linejoin="miter" fill="none" stroke="#000000" d="M159.42726 153.26876C188.79947 131.23831 230.45215 137.18881 249.73287 162.89496"/>
<path transform="matrix(.600048,-.79997608,-.80002406,-.60001209,264.9906,81.512348)" d="M3.7613 0C3.2994 .1127 1.26901 .75136 0 1.44638V-1.44638C1.26901-.75136 3.2994-.1127 3.7613 0Z"/>
<path transform="matrix(.600048,-.79997608,-.80002406,-.60001209,264.9906,81.512348)" stroke-width=".3985" stroke-linecap="butt" stroke-miterlimit="10" stroke-linejoin="miter" fill="none" stroke="#000000" d="M3.7613 0C3.2994 .1127 1.26901 .75136 0 1.44638V-1.44638C1.26901-.75136 3.2994-.1127 3.7613 0Z"/>
<use data-text="1" xlink:href="#font_1_1" transform="matrix(9.963397,0,0,-9.962799,45.73922,219.27307)"/>
<use data-text="2" xlink:href="#font_1_2" transform="matrix(9.963397,0,0,-9.962799,45.73922,190.9265)"/>
<use data-text="3" xlink:href="#font_1_3" transform="matrix(9.963397,0,0,-9.962799,50.62661,162.57892)"/>
<use data-text="4" xlink:href="#font_1_4" transform="matrix(9.963397,0,0,-9.962799,78.975879,176.75222)"/>
<path transform="matrix(1.00008,0,0,-1.00002,15.237778,244.41057)" stroke-width=".3985" stroke-linecap="butt" stroke-miterlimit="10" stroke-linejoin="miter" fill="none" stroke="#000000" d="M72.23822 56.69362C72.23822 84.17691 58.93321 106.45587 42.5202 106.45587 26.1072 106.45587 12.80219 84.17691 12.80219 56.69362 12.80219 29.21033 26.1072 6.93135 42.5202 6.93135 58.93321 6.93135 72.23822 29.21033 72.23822 56.69362ZM42.5202 56.69362"/>
<use data-text="A" xlink:href="#font_2_1" transform="matrix(9.963397,0,0,-9.962799,21.10025,158.52787)"/>
<use data-text="t" xlink:href="#font_2_9" transform="matrix(9.963397,0,0,-9.962799,277.41975,190.7795)"/>
<use data-text="u" xlink:href="#font_2_10" transform="matrix(9.963397,0,0,-9.962799,271.8103,161.51291)"/>
<use data-text="v" xlink:href="#font_2_11" transform="matrix(9.963397,0,0,-9.962799,286.50148,204.03476)"/>
<path transform="matrix(1.00008,0,0,-1.00002,15.237778,244.41057)" stroke-width=".3985" stroke-linecap="butt" stroke-miterlimit="10" stroke-linejoin="miter" fill="none" stroke="#000000" d="M299.0127 63.7803C299.0127 85.72845 285.7077 103.52043 269.29469 103.52043 252.88167 103.52043 239.57666 85.72845 239.57666 63.7803 239.57666 41.83215 252.88167 24.04018 269.29469 24.04018 285.7077 24.04018 299.0127 41.83215 299.0127 63.7803ZM269.29469 63.7803"/>
<use data-text="C" xlink:href="#font_2_3" transform="matrix(9.963397,0,0,-9.962799,312.01954,153.16474)"/>
<use data-text="f" xlink:href="#font_2_7" transform="matrix(9.963397,0,0,-9.962799,165.6278,178.73926)"/>
<use data-text="g" xlink:href="#font_2_8" transform="matrix(9.963397,0,0,-9.962799,171.56601,178.73926)"/>
<path transform="matrix(1.00008,0,0,-1.00002,15.237778,244.41057)" d="M44.51276 28.3468C44.51276 29.44728 43.62067 30.33936 42.5202 30.33936 41.41972 30.33936 40.52765 29.44728 40.52765 28.3468 40.52765 27.24634 41.41972 26.35425 42.5202 26.35425 43.62067 26.35425 44.51276 27.24634 44.51276 28.3468ZM42.5202 28.3468"/>
<path transform="matrix(1.00008,0,0,-1.00002,15.237778,244.41057)" d="M44.51276 56.69362C44.51276 57.79408 43.62067 58.68617 42.5202 58.68617 41.41972 58.68617 40.52765 57.79408 40.52765 56.69362 40.52765 55.59314 41.41972 54.70107 42.5202 54.70107 43.62067 54.70107 44.51276 55.59314 44.51276 56.69362ZM42.5202 56.69362"/>
<path transform="matrix(1.00008,0,0,-1.00002,15.237778,244.41057)" d="M30.33936 85.04042C30.33936 86.1409 29.44728 87.03297 28.3468 87.03297 27.24634 87.03297 26.35425 86.1409 26.35425 85.04042 26.35425 83.93996 27.24634 83.04787 28.3468 83.04787 29.44728 83.04787 30.33936 83.93996 30.33936 85.04042ZM28.3468 85.04042"/>
<path transform="matrix(1.00008,0,0,-1.00002,15.237778,244.41057)" d="M58.68617 70.867C58.68617 71.96748 57.79408 72.85956 56.69362 72.85956 55.59314 72.85956 54.70107 71.96748 54.70107 70.867 54.70107 69.76654 55.59314 68.87445 56.69362 68.87445 57.79408 68.87445 58.68617 69.76654 58.68617 70.867ZM56.69362 70.867"/>
<path transform="matrix(1.00008,0,0,-1.00002,15.237778,244.41057)" d="M257.11384 56.69362C257.11384 57.79408 256.22178 58.68617 255.12128 58.68617 254.02082 58.68617 253.12873 57.79408 253.12873 56.69362 253.12873 55.59314 254.02082 54.70107 255.12128 54.70107 256.22178 54.70107 257.11384 55.59314 257.11384 56.69362ZM255.12128 56.69362"/>
<path transform="matrix(1.00008,0,0,-1.00002,15.237778,244.41057)" d="M271.28724 85.04042C271.28724 86.1409 270.39518 87.03297 269.29469 87.03297 268.1942 87.03297 267.30213 86.1409 267.30213 85.04042 267.30213 83.93996 268.1942 83.04787 269.29469 83.04787 270.39518 83.04787 271.28724 83.93996 271.28724 85.04042ZM269.29469 85.04042"/>
<path transform="matrix(1.00008,0,0,-1.00002,15.237778,244.41057)" d="M285.46067 42.5202C285.46067 43.62067 284.56858 44.51276 283.4681 44.51276 282.3676 44.51276 281.47554 43.62067 281.47554 42.5202 281.47554 41.41972 282.3676 40.52765 283.4681 40.52765 284.56858 40.52765 285.46067 41.41972 285.46067 42.5202ZM283.4681 42.5202"/>
<path transform="matrix(1.00008,0,0,-1.00002,15.237778,244.41057)" stroke-width=".3985" stroke-linecap="butt" stroke-miterlimit="10" stroke-linejoin="miter" fill="none" stroke="#000000" d=""/>
<path transform="matrix(1.00008,0,0,-1.00002,15.237778,244.41057)" stroke-width=".3985" stroke-linecap="butt" stroke-miterlimit="10" stroke-linejoin="miter" fill="none" stroke="#000000" d="M46.04002 27.24348C123.40866 2.90425 183.22515 10.82185 247.73812 51.9803"/>
<path transform="matrix(.8430674,-.5378408,-.537873,-.84301689,262.99574,192.42923)" d="M3.7613 0C3.2994 .1127 1.26901 .75136 0 1.44638V-1.44638C1.26901-.75136 3.2994-.1127 3.7613 0Z"/>
<path transform="matrix(.8430674,-.5378408,-.537873,-.84301689,262.99574,192.42923)" stroke-width=".3985" stroke-linecap="butt" stroke-miterlimit="10" stroke-linejoin="miter" fill="none" stroke="#000000" d="M3.7613 0C3.2994 .1127 1.26901 .75136 0 1.44638V-1.44638C1.26901-.75136 3.2994-.1127 3.7613 0Z"/>
<path transform="matrix(1.00008,0,0,-1.00002,15.237778,244.41057)" stroke-width=".3985" stroke-linecap="butt" stroke-miterlimit="10" stroke-linejoin="miter" fill="none" stroke="#000000" d=""/>
<path transform="matrix(1.00008,0,0,-1.00002,15.237778,244.41057)" stroke-width=".3985" stroke-linecap="butt" stroke-miterlimit="10" stroke-linejoin="miter" fill="none" stroke="#000000" d="M46.04002 55.55913C128.20896 28.97829 192.59581 36.97293 261.8916 80.39902"/>
<path transform="matrix(.8474178,-.5310106,-.5310425,-.847367,277.15028,164.00995)" d="M3.7613 0C3.2994 .1127 1.26901 .75136 0 1.44638V-1.44638C1.26901-.75136 3.2994-.1127 3.7613 0Z"/>
<path transform="matrix(.8474178,-.5310106,-.5310425,-.847367,277.15028,164.00995)" stroke-width=".3985" stroke-linecap="butt" stroke-miterlimit="10" stroke-linejoin="miter" fill="none" stroke="#000000" d="M3.7613 0C3.2994 .1127 1.26901 .75136 0 1.44638V-1.44638C1.26901-.75136 3.2994-.1127 3.7613 0Z"/>
<path transform="matrix(1.00008,0,0,-1.00002,15.237778,244.41057)" stroke-width=".3985" stroke-linecap="butt" stroke-miterlimit="10" stroke-linejoin="miter" fill="none" stroke="#000000" d=""/>
<path transform="matrix(1.00008,0,0,-1.00002,15.237778,244.41057)" stroke-width=".3985" stroke-linecap="butt" stroke-miterlimit="10" stroke-linejoin="miter" fill="none" stroke="#000000" d="M31.86662 86.67625C114.53801 125.22682 183.10347 125.22682 261.62144 88.61299"/>
<path transform="matrix(.9063725,.42260847,.4226338,-.9063182,276.88014,155.79579)" d="M3.7613 0C3.2994 .1127 1.26901 .75136 0 1.44638V-1.44638C1.26901-.75136 3.2994-.1127 3.7613 0Z"/>
<path transform="matrix(.9063725,.42260847,.4226338,-.9063182,276.88014,155.79579)" stroke-width=".3985" stroke-linecap="butt" stroke-miterlimit="10" stroke-linejoin="miter" fill="none" stroke="#000000" d="M3.7613 0C3.2994 .1127 1.26901 .75136 0 1.44638V-1.44638C1.26901-.75136 3.2994-.1127 3.7613 0Z"/>
<path transform="matrix(1.00008,0,0,-1.00002,15.237778,244.41057)" stroke-width=".3985" stroke-linecap="butt" stroke-miterlimit="10" stroke-linejoin="miter" fill="none" stroke="#000000" d=""/>
<path transform="matrix(1.00008,0,0,-1.00002,15.237778,244.41057)" stroke-width=".3985" stroke-linecap="butt" stroke-miterlimit="10" stroke-linejoin="miter" fill="none" stroke="#000000" d="M60.21344 72.7991C130.74236 111.54889 190.75585 115.52277 261.50279 88.06026"/>
<path transform="matrix(.93226459,.36185725,.36187894,-.93220868,276.76148,156.34854)" d="M3.7613 0C3.2994 .1127 1.26901 .75136 0 1.44638V-1.44638C1.26901-.75136 3.2994-.1127 3.7613 0Z"/>
<path transform="matrix(.93226459,.36185725,.36187894,-.93220868,276.76148,156.34854)" stroke-width=".3985" stroke-linecap="butt" stroke-miterlimit="10" stroke-linejoin="miter" fill="none" stroke="#000000" d="M3.7613 0C3.2994 .1127 1.26901 .75136 0 1.44638V-1.44638C1.26901-.75136 3.2994-.1127 3.7613 0Z"/>
<path transform="matrix(1.00008,0,0,-1.00002,15.237778,244.41057)" stroke-width=".3985" stroke-linecap="butt" stroke-miterlimit="10" stroke-linejoin="miter" fill="none" stroke="#fafafa" d="M-14.14023-.61555H324.5939V242.61089H-14.14023Z"/>
</svg>
