<svg xmlns="http://www.w3.org/2000/svg" xmlns:xlink="http://www.w3.org/1999/xlink" version="1.1" width="341" height="109" viewBox="0 0 341 109">
<defs>
<path id="font_1_1" d="M.7599945 .69506838C.7599945 .69807437 .7579956 .7050781 .7489929 .7050781 .74598696 .7050781 .7449951 .70407107 .73399356 .69306948L.6639862 .61598208C.6549988 .6300049 .60899356 .7050781 .49798585 .7050781 .2749939 .7050781 .049987794 .4837799 .049987794 .25144959 .049987794 .09249878 .16099549-.022460938 .32299806-.022460938 .36698915-.022460938 .4119873-.013473511 .44799806 .0015258789 .49798585 .021530152 .5169983 .042526246 .5349884 .06251526 .5439911 .037521364 .56999209 .0005340576 .5799866 .0005340576 .58499148 .0005340576 .58699038 .0035247803 .58699038 .0045318605 .58898928 .0065307619 .598999 .044525148 .60398867 .06550598L.6230011 .14248657C.6269989 .15948487 .6319885 .1764679 .6359863 .19346619 .6469879 .2384491 .647995 .240448 .7049866 .24145508 .70999148 .24145508 .72099307 .2424469 .72099307 .26145936 .72099307 .26844789 .71598818 .27246095 .70799258 .27246095 .68499758 .27246095 .6259918 .26945497 .6029968 .26945497 .57199099 .26945497 .49398805 .27246095 .46299745 .27246095 .45399476 .27246095 .44198609 .27246095 .44198609 .25245667 .44198609 .24145508 .44999696 .24145508 .47200013 .24145508 .47299195 .24145508 .5019989 .24145508 .5249939 .23945618 .5509949 .2364502 .55599978 .23345948 .55599978 .22045899 .55599978 .2114563 .54499819 .16647339 .5349884 .12948609 .5069885 .01953125 .3769989 .008529663 .34199525 .008529663 .24598694 .008529663 .14099121 .06550598 .14099121 .21846009 .14099121 .24945069 .15098572 .41467286 .2559967 .5448761 .30999757 .6129761 .40699769 .67407229 .5059967 .67407229 .60798647 .67407229 .6669922 .59695437 .6669922 .48077394 .6669922 .44070436 .6639862 .43971253 .6639862 .4296875 .6639862 .41967774 .6749878 .41967774 .67900088 .41967774 .69200137 .41967774 .69200137 .42167665 .69699099 .43971253L.7599945 .69506838Z"/>
<path id="font_2_1" d="M.32798768 .71199038C.33299256 .72299197 .33299256 .72499087 .33299256 .7299957 .33299256 .7409973 .32398988 .75 .31298829 .75 .3039856 .75 .29699708 .7449951 .2899933 .72698977L.114990238 .2679901C.11299133 .2619934 .10998535 .2559967 .10998535 .25 .10998535 .24699402 .10998535 .24499512 .114990238 .23298645L.2899933-.22601319C.2939911-.23701477 .29899598-.25 .31298829-.25 .32398988-.25 .33299256-.24101258 .33299256-.23001099 .33299256-.227005 .33299256-.2250061 .32798768-.21400452L.15098572 .25 .32798768 .71199038Z"/>
<path id="font_1_2" d="M.47099305 .3773346C.47200013 .3833313 .47399903 .38833619 .47399903 .39535523 .47399903 .41236878 .46199037 .42237855 .44499208 .42237855 .43499757 .42237855 .4079895 .41537477 .4039917 .3793335 .38598634 .41636659 .35099793 .4423828 .31098939 .4423828 .19699097 .4423828 .07299805 .30226136 .07299805 .15812683 .07299805 .059020997 .13398743 0 .20599365 0 .2649994 0 .31199647 .04701233 .32199098 .058029176L.32299806 .057022096C.3019867-.031982423 .2899933-.07295227 .2899933-.07495117 .28599549-.08395386 .2519989-.18309021 .1459961-.18309021 .1269989-.18309021 .09399414-.18206787 .06599426-.17297364 .09599304-.16394043 .10699463-.13793946 .10699463-.12094116 .10699463-.10494995 .09599304-.0859375 .068984989-.0859375 .04699707-.0859375 .01499939-.10394287 .01499939-.14395142 .01499939-.18508911 .051986696-.20507813 .147995-.20507813 .272995-.20507813 .34498597-.12693787 .3600006-.06695557L.47099305 .3773346M.34098817 .12809754C.33499146 .10206604 .31199647 .077041629 .2899933 .058029176 .2689972 .040008546 .23799134 .021987915 .20899964 .021987915 .15899658 .021987915 .14399719 .074035648 .14399719 .11407471 .14399719 .16212464 .17298889 .28024293 .19999695 .33128358 .22698975 .38034059 .269989 .42037965 .31199647 .42037965 .37799073 .42037965 .3919983 .33929444 .3919983 .33428956 .3919983 .32928468 .3899994 .3232727 .3889923 .3192749L.34098817 .12809754Z"/>
<path id="font_3_2" d="M.5089874 .4123993C.5099945 .4163971 .5109863 .4223938 .5109863 .42739869 .5109863 .4333954 .5069885 .44140626 .49798585 .44140626 .48799134 .44140626 .44599916 .4073944 .42599488 .37538148 .41600038 .39538575 .3829956 .44140626 .31900025 .44140626 .19099427 .44140626 .06098938 .300354 .06098938 .15628052 .06098938 .059249879 .12599182-.009765625 .21199036-.009765625 .2689972-.009765625 .31599427 .026229859 .33799745 .04524231 .33699037 .042236329 .30599977-.08406067 .3019867-.101119998 .28799439-.15634156 .2869873-.15733338 .22499085-.15834046 .21299744-.15834046 .19898987-.15834046 .19898987-.18034363 .19898987-.18634033 .20399475-.19433594 .21398926-.19433594 .24699402-.19433594 .28399659-.19033814 .31799317-.19033814 .35198976-.19033814 .3939972-.19433594 .4249878-.19433594 .43399049-.19433594 .44499208-.19134522 .44499208-.17234802 .44499208-.15834046 .43099977-.15834046 .4189911-.15834046 .39698792-.15834046 .36999513-.15834046 .36999513-.14630127 .36999513-.14328003 .36999513-.14128113 .375-.12420654L.5089874 .4123993M.35798646 .12626648C.35299684 .10926819 .35299684 .10726929 .33999635 .09126282 .30099488 .04524231 .2539978 .018234253 .21499634 .018234253 .17799378 .018234253 .14199829 .04423523 .14199829 .11526489 .14199829 .16828919 .17098999 .27833558 .19400025 .31835938 .23999024 .39839173 .29100038 .4133911 .31900025 .4133911 .3889923 .4133911 .4079895 .33636476 .4079895 .32635499 .4079895 .32136537 .4059906 .3153534 .40499879 .3113556L.35798646 .12626648Z"/>
<path id="font_2_2" d="M.272995 .23298645C.27799989 .24499512 .27799989 .24699402 .27799989 .25 .27799989 .25299073 .27799989 .25498963 .272995 .2669983L.09799194 .72698977C.09199524 .74398806 .085998538 .75 .07499695 .75 .06399536 .75 .054992677 .7409973 .054992677 .7299957 .054992677 .72698977 .054992677 .72499087 .05999756 .71398928L.23699951 .25 .05999756-.21200562C.054992677-.2230072 .054992677-.2250061 .054992677-.23001099 .054992677-.24101258 .06399536-.25 .07499695-.25 .08799744-.25 .09199524-.2400055 .09599304-.23001099L.272995 .23298645Z"/>
<path id="font_3_1" d="M.07499695-.12220764C.067993167-.15031433 .06599426-.15834046 .025985718-.15834046 .0129852299-.15834046-.0010070801-.15834046-.0010070801-.17933655-.0010070801-.19033814 .0079956059-.19433594 .0129852299-.19433594 .038986207-.19433594 .07199097-.19033814 .09899902-.19033814 .1329956-.19033814 .17098999-.19433594 .20399475-.19433594 .21299744-.19433594 .22399903-.19134522 .22399903-.17234802 .22399903-.15834046 .20999146-.15834046 .19799805-.15834046 .17599488-.15834046 .14898682-.15834046 .14898682-.14630127 .14898682-.14128113 .1559906-.11517334 .1599884-.100112918 .17199707-.046920778 .18598938 .007232666 .19699097 .049240114 .20899964 .02923584 .23999024-.009765625 .2999878-.009765625 .42199708-.009765625 .5569916 .12527466 .5569916 .27433778 .5569916 .39138795 .47599793 .44140626 .40699769 .44140626 .34498597 .44140626 .2919922 .3993988 .2649994 .37138368 .24798584 .42840577 .19198609 .44140626 .1619873 .44140626 .12298584 .44140626 .09899902 .41540528 .08299255 .38838197 .06298828 .35437013 .04699707 .29434205 .04699707 .28834535 .04699707 .27534486 .06098938 .27534486 .06399536 .27534486 .07798767 .27534486 .07899475 .27833558 .085998538 .3053589 .100997928 .3633728 .11999512 .4133911 .15899658 .4133911 .18499756 .4133911 .19198609 .39138795 .19198609 .36437989 .19198609 .3533783 .18998719 .34036256 .18899536 .33436585L.07499695-.12220764M.2639923 .32136537C.32199098 .39839173 .37199403 .4133911 .4039917 .4133911 .44299317 .4133911 .47698976 .38438417 .47698976 .31636048 .47698976 .27534486 .45498658 .17329407 .4249878 .11526489 .3999939 .06625366 .35099793 .018234253 .2999878 .018234253 .22898865 .018234253 .21099854 .09526062 .21099854 .105270389 .21099854 .10926819 .21299744 .11627197 .21398926 .120269779L.2639923 .32136537Z"/>
</defs>
<use data-text="G" xlink:href="#font_1_1" transform="matrix(9.963397,0,0,-9.962799,166.45488,18.56905)"/>
<use data-text="&#x27e8;" xlink:href="#font_2_1" transform="matrix(9.963397,0,0,-9.962799,135.78743,55.35979)"/>
<use data-text="g" xlink:href="#font_1_2" transform="matrix(9.963397,0,0,-9.962799,139.66274,55.35979)"/>
<use data-text="q" xlink:href="#font_3_2" transform="matrix(6.974358,0,0,-6.97394,144.77217,51.744718)"/>
<use data-text="&#x27e9;" xlink:href="#font_2_2" transform="matrix(9.963397,0,0,-9.962799,149.1725,55.35979)"/>
<use data-text="&#x27e8;" xlink:href="#font_2_1" transform="matrix(9.963397,0,0,-9.962799,187.69657,55.35979)"/>
<use data-text="g" xlink:href="#font_1_2" transform="matrix(9.963397,0,0,-9.962799,191.57089,55.35979)"/>
<use data-text="p" xlink:href="#font_3_1" transform="matrix(6.974358,0,0,-6.97394,196.6803,51.744718)"/>
<use data-text="&#x27e9;" xlink:href="#font_2_2" transform="matrix(9.963397,0,0,-9.962799,201.28568,55.35979)"/>
<use data-text="&#x27e8;" xlink:href="#font_2_1" transform="matrix(9.963397,0,0,-9.962799,159.68834,94.64157)"/>
<use data-text="g" xlink:href="#font_1_2" transform="matrix(9.963397,0,0,-9.962799,163.56264,94.64157)"/>
<use data-text="p" xlink:href="#font_3_1" transform="matrix(6.974358,0,0,-6.97394,168.67208,91.0265)"/>
<use data-text="q" xlink:href="#font_3_2" transform="matrix(6.974358,0,0,-6.97394,172.77297,91.0265)"/>
<use data-text="&#x27e9;" xlink:href="#font_2_2" transform="matrix(9.963397,0,0,-9.962799,177.17974,94.64157)"/>
<path transform="matrix(1.00008,0,0,-1.00002,170.47519,54.44577)" stroke-width=".3985" stroke-linecap="butt" stroke-miterlimit="10" stroke-linejoin="miter" fill="none" stroke="#000000" d="M-19.07414 11.71971-6.90005 29.40361"/>
<path transform="matrix(-.56706538,.8236565,.82370588,.5670314,151.39954,42.725809)" stroke-width=".3985" stroke-linecap="round" stroke-miterlimit="10" stroke-linejoin="miter" fill="none" stroke="#000000" d="M0 0H.35864C1.15483 0 1.79321-.79619 1.79321-1.43457 1.79321-2.23076 1.15483-2.86916 .35864-2.86916"/>
<path transform="matrix(.56704536,-.8236665,-.82371589,-.56701138,163.57459,25.04157)" d="M3.58653 0C2.52383 .19925 .797 .797-.3985 1.49438V-1.49438C.797-.797 2.52383-.19925 3.58653 0"/>
<path transform="matrix(1.00008,0,0,-1.00002,170.47519,54.44577)" stroke-width=".3985" stroke-linecap="butt" stroke-miterlimit="10" stroke-linejoin="miter" fill="none" stroke="#000000" d="M18.94543 11.71765 6.7191 29.40738"/>
<path transform="matrix(.5685755,.82261648,.8226658,-.5685414,189.42214,42.727869)" stroke-width=".3985" stroke-linecap="round" stroke-miterlimit="10" stroke-linejoin="miter" fill="none" stroke="#000000" d="M0 0H.35864C1.15483 0 1.79321-.79619 1.79321-1.43457 1.79321-2.23076 1.15483-2.86916 .35864-2.86916"/>
<path transform="matrix(-.5685755,-.82261648,-.8226658,.5685414,177.19483,25.037802)" d="M3.58653 0C2.52383 .19925 .797 .797-.3985 1.49438V-1.49438C.797-.797 2.52383-.19925 3.58653 0"/>
<path transform="matrix(1.00008,0,0,-1.00002,170.47519,54.44577)" stroke-width=".3985" stroke-linecap="butt" stroke-miterlimit="10" stroke-linejoin="miter" fill="none" stroke="#000000" d="M-6.81708-27.54051-18.46231-9.9159"/>
<path transform="matrix(.55128416,.8342867,.83433678,-.55125108,163.65756,81.98683)" stroke-width=".3985" stroke-linecap="round" stroke-miterlimit="10" stroke-linejoin="miter" fill="none" stroke="#000000" d="M0 0H.35864C1.15483 0 1.79321-.79619 1.79321-1.43457 1.79321-2.23076 1.15483-2.86916 .35864-2.86916"/>
<path transform="matrix(-.55128416,-.8342867,-.83433678,.55125108,152.0114,64.36188)" d="M3.58653 0C2.52383 .19925 .797 .797-.3985 1.49438V-1.49438C.797-.797 2.52383-.19925 3.58653 0"/>
<path transform="matrix(1.00008,0,0,-1.00002,170.47519,54.44577)" stroke-width=".3985" stroke-linecap="butt" stroke-miterlimit="10" stroke-linejoin="miter" fill="none" stroke="#000000" d="M6.63704-27.54253 18.33209-9.9123"/>
<path transform="matrix(-.5527942,.8332867,.83333668,.5527611,177.11277,81.98883)" stroke-width=".3985" stroke-linecap="round" stroke-miterlimit="10" stroke-linejoin="miter" fill="none" stroke="#000000" d="M0 0H.35864C1.15483 0 1.79321-.79619 1.79321-1.43457 1.79321-2.23076 1.15483-2.86916 .35864-2.86916"/>
<path transform="matrix(.5527942,-.8332867,-.83333668,-.5527611,188.80875,64.35827)" d="M3.58653 0C2.52383 .19925 .797 .797-.3985 1.49438V-1.49438C.797-.797 2.52383-.19925 3.58653 0"/>
<path transform="matrix(1.00008,0,0,-1.00002,170.47519,54.44577)" stroke-width=".3985" stroke-linecap="butt" stroke-miterlimit="10" stroke-linejoin="miter" fill="none" stroke="#fafafa" d="M-169.36707-52.64708H169.36707V52.64708H-169.36707Z"/>
</svg>
