<?xml version="1.0" encoding="UTF-8"?>
<svg xmlns="http://www.w3.org/2000/svg" xmlns:xlink="http://www.w3.org/1999/xlink" width="342pt" height="44pt" viewBox="0 0 342 44" version="1.1">
<g id="surface1">
<path style="fill:none;stroke-width:0.3985;stroke-linecap:butt;stroke-linejoin:miter;stroke:rgb(0%,0%,0%);stroke-opacity:1;stroke-miterlimit:10;" d="M 11.3375 11.339063 L 11.3375 22.678906 L 22.677344 22.678906 L 22.677344 11.339063 Z M 11.3375 11.339063 " transform="matrix(1,0,0,-1,148.1,50.675)"/>
<path style="fill:none;stroke-width:0.3985;stroke-linecap:butt;stroke-linejoin:miter;stroke:rgb(0%,0%,0%);stroke-opacity:1;stroke-miterlimit:10;" d="M 22.677344 11.339063 L 22.677344 22.678906 L 34.017188 22.678906 L 34.017188 11.339063 Z M 22.677344 11.339063 " transform="matrix(1,0,0,-1,148.1,50.675)"/>
<path style="fill:none;stroke-width:0.3985;stroke-linecap:butt;stroke-linejoin:miter;stroke:rgb(0%,0%,0%);stroke-opacity:1;stroke-miterlimit:10;" d="M 11.3375 22.678906 L 11.3375 34.014844 L 22.677344 34.014844 L 22.677344 22.678906 Z M 11.3375 22.678906 " transform="matrix(1,0,0,-1,148.1,50.675)"/>
<path style="fill:none;stroke-width:0.3985;stroke-linecap:butt;stroke-linejoin:miter;stroke:rgb(0%,0%,0%);stroke-opacity:1;stroke-miterlimit:10;" d="M 22.677344 22.678906 L 22.677344 34.014844 L 34.017188 34.014844 L 34.017188 22.678906 Z M 22.677344 22.678906 " transform="matrix(1,0,0,-1,148.1,50.675)"/>
<path style="fill:none;stroke-width:0.3985;stroke-linecap:butt;stroke-linejoin:miter;stroke:rgb(0%,0%,0%);stroke-opacity:1;stroke-miterlimit:10;" d="M 11.3375 34.014844 L 11.3375 45.354688 L 22.677344 45.354688 L 22.677344 34.014844 Z M 11.3375 34.014844 " transform="matrix(1,0,0,-1,148.1,50.675)"/>
<path style="fill:none;stroke-width:0.3985;stroke-linecap:butt;stroke-linejoin:miter;stroke:rgb(97.499084%,97.499084%,97.499084%);stroke-opacity:1;stroke-miterlimit:10;" d="M -146.689844 7.819531 L 192.044531 7.819531 L 192.044531 48.878125 L -146.689844 48.878125 Z M -146.689844 7.819531 " transform="matrix(1,0,0,-1,148.1,50.675)"/>
</g>
</svg>
