<svg xmlns="http://www.w3.org/2000/svg" xmlns:xlink="http://www.w3.org/1999/xlink" xmlns:inkscape="http://www.inkscape.org/namespaces/inkscape" version="1.1" width="342" height="22" viewBox="0 0 342 22">
<path transform="matrix(1,0,0,-1.00008,114.08299,27.999958)" stroke-width=".3985" stroke-linecap="butt" stroke-miterlimit="10" stroke-linejoin="miter" fill="none" stroke="#000000" d="M11.33855 11.33855V22.6771H22.6771V11.33855ZM22.6771 22.6771"/>
<path transform="matrix(1,0,0,-1.00008,114.08299,27.999958)" stroke-width=".3985" stroke-linecap="butt" stroke-miterlimit="10" stroke-linejoin="miter" fill="none" stroke="#000000" d="M22.6771 11.33855V22.6771H34.01564V11.33855ZM34.01564 22.6771"/>
<path transform="matrix(1,0,0,-1.00008,114.08299,27.999958)" stroke-width=".3985" stroke-linecap="butt" stroke-miterlimit="10" stroke-linejoin="miter" fill="none" stroke="#000000" d="M34.01564 11.33855V22.6771H45.35419V11.33855ZM45.35419 22.6771"/>
<path transform="matrix(1,0,0,-1.00008,114.08299,27.999958)" stroke-width=".3985" stroke-linecap="butt" stroke-miterlimit="10" stroke-linejoin="miter" fill="none" stroke="#000000" d="M45.35419 11.33855V22.6771H56.69275V11.33855ZM56.69275 22.6771"/>
<path transform="matrix(1,0,0,-1.00008,114.08299,27.999958)" stroke-width=".3985" stroke-linecap="butt" stroke-miterlimit="10" stroke-linejoin="miter" fill="none" stroke="#000000" d="M56.69275 11.33855V22.6771H68.0313V11.33855ZM68.0313 22.6771"/>
<path transform="matrix(1,0,0,-1.00008,114.08299,27.999958)" stroke-width=".3985" stroke-linecap="butt" stroke-miterlimit="10" stroke-linejoin="miter" fill="none" stroke="#000000" d="M68.0313 11.33855V22.6771H79.36984V11.33855ZM79.36984 22.6771"/>
<path transform="matrix(1,0,0,-1.00008,114.08299,27.999958)" stroke-width=".3985" stroke-linecap="butt" stroke-miterlimit="10" stroke-linejoin="miter" fill="none" stroke="#000000" d="M79.36984 11.33855V22.6771H90.70839V11.33855ZM90.70839 22.6771"/>
<path transform="matrix(1,0,0,-1.00008,114.08299,27.999958)" stroke-width=".3985" stroke-linecap="butt" stroke-miterlimit="10" stroke-linejoin="miter" fill="none" stroke="#000000" d="M90.70839 11.33855V22.6771H102.04694V11.33855ZM102.04694 22.6771"/>
<path transform="matrix(1,0,0,-1.00008,114.08299,27.999958)" stroke-width=".3985" stroke-linecap="butt" stroke-miterlimit="10" stroke-linejoin="miter" fill="none" stroke="#f9f9f9" d="M-112.67053 7.81964H226.0636V26.198212H-112.67053Z"/>
</svg>
