<svg xmlns="http://www.w3.org/2000/svg" xmlns:xlink="http://www.w3.org/1999/xlink" xmlns:inkscape="http://www.inkscape.org/namespaces/inkscape" version="1.1" width="341" height="144" viewBox="0 0 341 144">
<defs>
<path id="font_1_1" d="M.1269989 .07699585 .23298645 .18003845C.3889923 .31811524 .44898988 .3721466 .44898988 .47216798 .44898988 .5860901 .35899354 .6660156 .23699951 .6660156 .12399292 .6660156 .049987794 .57411196 .049987794 .48516847 .049987794 .4291687 .099990848 .4291687 .102996829 .4291687 .11999512 .4291687 .15499878 .44117738 .15499878 .48217774 .15499878 .5081787 .13699341 .5341797 .101989749 .5341797 .09399414 .5341797 .09199524 .5341797 .08898926 .5331726 .11199951 .59806826 .1659851 .63500979 .22399903 .63500979 .31498719 .63500979 .35798646 .5541382 .35798646 .47216798 .35798646 .39215089 .30799867 .31311036 .25299073 .25108338L.06098938 .036987306C.049987794 .025985718 .049987794 .023986817 .049987794 0H.42099L.44898988 .17404175H.42399598C.4189911 .14402771 .4119873 .1000061 .4019928 .084991458 .394989 .07699585 .32899476 .07699585 .30699159 .07699585H.1269989Z"/>
<path id="font_1_2" d="M.2899933 .35191346C.37199403 .37893678 .42999269 .4490509 .42999269 .52809146 .42999269 .6100464 .34199525 .6660156 .24598694 .6660156 .14498902 .6660156 .068984989 .60606387 .068984989 .53009036 .068984989 .49710084 .09098816 .47808839 .11999512 .47808839 .15098572 .47808839 .17098999 .50009158 .17098999 .5290985 .17098999 .57910159 .12399292 .57910159 .10899353 .57910159 .13999939 .62802127 .20599365 .64100649 .24198914 .64100649 .2829895 .64100649 .33799745 .6190338 .33799745 .5290985 .33799745 .51708987 .33599855 .45906068 .30999757 .4149933 .27999879 .36691285 .24598694 .36390687 .22099304 .36291505 .21299744 .36190797 .18899536 .35990907 .18199158 .35990907 .17399597 .35890199 .16699219 .35791017 .16699219 .3479004 .16699219 .33691407 .17399597 .33691407 .19099427 .33691407H.23498535C.31698609 .33691407 .35398866 .2686615 .35398866 .17037964 .35398866 .034469606 .2849884 .0055389406 .24099732 .0055389406 .19799805 .0055389406 .12298584 .022491456 .08799744 .08137512 .12298584 .07637024 .1539917 .09837341 .1539917 .1363678 .1539917 .17237854 .1269989 .19238281 .09799194 .19238281 .07398987 .19238281 .041992189 .17837525 .041992189 .1343689 .041992189 .043441774 .1349945-.022460938 .24398804-.022460938 .3659973-.022460938 .45700074 .06838989 .45700074 .17037964 .45700074 .252594 .3939972 .33088685 .2899933 .35191346Z"/>
<path id="font_1_4" d="M.44898988 .20022583C.44898988 .3193512 .36698915 .41944886 .25898744 .41944886 .21099854 .41944886 .16799927 .40345765 .13198853 .36842347V.5637665C.1519928 .5577698 .18499756 .55078127 .21699524 .55078127 .33999635 .55078127 .4099884 .6417694 .4099884 .6547699 .4099884 .6607666 .40699769 .6657715 .3999939 .6657715 .39898683 .6657715 .39698792 .6657715 .3919983 .66278079 .37199403 .6537781 .32299806 .6337738 .2559967 .6337738 .21598816 .6337738 .16999817 .6407776 .12298584 .6617737 .114990238 .66477969 .11299133 .66477969 .11099243 .66477969 .100997928 .66477969 .100997928 .6567688 .100997928 .6407776V.34439088C.100997928 .32637025 .100997928 .31835938 .114990238 .31835938 .12199402 .31835938 .12399292 .32136537 .12799073 .32736207 .13899231 .3433838 .17599488 .39746095 .25698854 .39746095 .30899049 .39746095 .33399964 .35139466 .34199525 .33337403 .35798646 .29632569 .3600006 .25727845 .3600006 .20722962 .3600006 .17222595 .3600006 .11222839 .33599855 .07035828 .31199647 .031463624 .2749939 .0055389406 .22898865 .0055389406 .1559906 .0055389406 .09899902 .058380128 .08198547 .11723328 .084991458 .1162262 .08799744 .115234378 .09899902 .115234378 .13198853 .115234378 .14898682 .14022827 .14898682 .16423035 .14898682 .18823242 .13198853 .21322632 .09899902 .21322632 .084991458 .21322632 .049987794 .20622254 .049987794 .16023255 .049987794 .07434082 .11898804-.022460938 .23098755-.022460938 .34700013-.022460938 .44898988 .073349 .44898988 .20022583Z"/>
<path id="font_2_1" d="M.1789856 .114868167C.13899231 .047973634 .099990848 .033981325 .055999757 .0309906 .04399109 .02999878 .034988405 .02999878 .034988405 .010986328 .034988405 .004989624 .039993287 0 .04798889 0 .07499695 0 .10598755 .0029907227 .13398743 .0029907227 .16699219 .0029907227 .20199585 0 .23399353 0 .23999024 0 .25299073 0 .25299073 .018997193 .25299073 .02999878 .24398804 .0309906 .23699951 .0309906 .21398926 .032989503 .18998719 .04096985 .18998719 .06593323 .18998719 .077926639 .19599915 .088897708 .20399475 .102890018L.27999879 .23068238H.5309906C.5329895 .2097168 .5469971 .07392883 .5469971 .063949588 .5469971 .033981325 .49499513 .0309906 .47499085 .0309906 .46099855 .0309906 .45098878 .0309906 .45098878 .010986328 .45098878 0 .46299745 0 .46499635 0 .5059967 0 .548996 .0029907227 .58999636 .0029907227 .61499026 .0029907227 .6779938 0 .7029877 0 .70899966 0 .72099307 0 .72099307 .019989014 .72099307 .0309906 .71099856 .0309906 .69799807 .0309906 .6359863 .0309906 .6359863 .037979127 .6329956 .06694031L.57199099 .691803C.56999209 .71180728 .56999209 .7158203 .5529938 .7158203 .5369873 .7158203 .5329895 .7088165 .5269928 .69880679L.1789856 .114868167M.29899598 .26168824 .49598695 .5917816 .5279999 .26168824H.29899598Z"/>
<path id="font_1_6" d="M.47599793 .609375C.4850006 .6213684 .4850006 .62338259 .4850006 .64437869H.24198914C.11999512 .64437869 .117996219 .65737918 .11399841 .67637637H.08898926L.055999757 .4702301H.08099365C.083999637 .48625184 .09298706 .5493469 .10598755 .56137087 .11299133 .5673828 .19099427 .5673828 .20399475 .5673828H.41099549C.3999939 .5513611 .32099916 .4421997 .29899598 .40914918 .20899964 .27394105 .17599488 .1347351 .17599488 .032577516 .17599488 .022567749 .17599488-.022460938 .22200012-.022460938 .2679901-.022460938 .2679901 .022567749 .2679901 .032577516V.08366394C.2679901 .13873291 .2709961 .19381714 .2789917 .24790955 .2829895 .27093507 .29699708 .35707093 .34098817 .41915895L.47599793 .609375Z"/>
<path id="font_1_3" d="M.2939911 .16503906V.07800293C.2939911 .041992189 .2919922 .0309906 .21798706 .0309906H.19699097V0C.23799134 .0029907227 .2899933 .0029907227 .33198548 .0029907227 .37399293 .0029907227 .4269867 .0029907227 .46798707 0V.0309906H.44699098C.37298585 .0309906 .37098695 .041992189 .37098695 .07800293V.16503906H.47099305V.19602967H.37098695V.65075686C.37098695 .67074587 .37098695 .6767578 .35499574 .6767578 .34599305 .6767578 .34298707 .6767578 .33499146 .66474917L.027999878 .19602967V.16503906H.2939911M.2999878 .19602967H.055999757L.2999878 .5688019V.19602967Z"/>
<path id="font_1_5" d="M.13198853 .327713V.35173036C.13198853 .6047821 .2559967 .64100649 .30699159 .64100649 .33099366 .64100649 .37298585 .634964 .394989 .6007538 .37998963 .6007538 .33999635 .6007538 .33999635 .5557556 .33999635 .524765 .3639984 .5097656 .38598634 .5097656 .4019928 .5097656 .43199159 .51875308 .43199159 .5577545 .43199159 .6178589 .3880005 .6660156 .30499269 .6660156 .1769867 .6660156 .041992189 .5367584 .041992189 .31570436 .041992189 .048553468 .1579895-.022460938 .25099183-.022460938 .3619995-.022460938 .45700074 .07156372 .45700074 .2036438 .45700074 .33070375 .36799623 .4267578 .25698854 .4267578 .18899536 .4267578 .1519928 .37573243 .13198853 .327713M.25099183 .0055389406C.18798828 .0055389406 .1579895 .06556702 .1519928 .080566409 .13398743 .127594 .13398743 .2076416 .13398743 .22564698 .13398743 .30369569 .1659851 .40374757 .2559967 .40374757 .27198792 .40374757 .31799317 .40374757 .34899903 .34172059 .36698915 .30470277 .36698915 .2536621 .36698915 .20463562 .36698915 .15661621 .36698915 .10658264 .34999085 .0705719 .31999208 .010528564 .27398683 .0055389406 .25099183 .0055389406Z"/>
<path id="font_2_2" d="M.1599884 .07795715C.1499939 .038986207 .147995 .0309906 .068984989 .0309906 .051986696 .0309906 .041992189 .0309906 .041992189 .010986328 .041992189 0 .050994874 0 .068984989 0H.42599488C.58399966 0 .70199587 .11791992 .70199587 .21585083 .70199587 .28778077 .6439972 .3457489 .5469971 .35673524 .651001 .37573243 .7559967 .44970704 .7559967 .5446625 .7559967 .6186218 .6899872 .6826172 .56999209 .6826172H.23399353C.21499634 .6826172 .20498657 .6826172 .20498657 .6626129 .20498657 .6516113 .21398926 .6516113 .23298645 .6516113 .23498535 .6516113 .2539978 .6516113 .2709961 .6496124 .2889862 .6476135 .2979889 .64660647 .2979889 .6336212 .2979889 .6296234 .29699708 .62661746 .2939911 .614624L.1599884 .07795715M.31098939 .36573792 .37298585 .6136322C.38198854 .64860537 .38398744 .6516113 .4269867 .6516113H.55599978C.6439972 .6516113 .6649933 .5926361 .6649933 .5486603 .6649933 .46069337 .57899478 .36573792 .45700074 .36573792H.31098939M.2659912 .0309906C.2519989 .0309906 .25 .0309906 .24398804 .03199768 .23399353 .032989503 .23098755 .033996583 .23098755 .04197693 .23098755 .04498291 .23098755 .04698181 .23599243 .064971927L.30499269 .34375H.49398805C.58999636 .34375 .60899356 .2698059 .60899356 .22683716 .60899356 .12791443 .519989 .0309906 .4019928 .0309906H.2659912Z"/>
</defs>
<use data-text="2" xlink:href="#font_1_1" transform="matrix(9.963397,0,0,-9.963098,75.5026,97.543079)"/>
<use data-text="3" xlink:href="#font_1_2" transform="matrix(9.963397,0,0,-9.963098,89.677738,69.195659)"/>
<use data-text="5" xlink:href="#font_1_4" transform="matrix(9.963397,0,0,-9.963098,80.38999,40.847238)"/>
<path transform="matrix(1.00008,0,0,-1.00005,45.00116,122.68133)" stroke-width=".3985" stroke-linecap="butt" stroke-miterlimit="10" stroke-linejoin="miter" fill="none" stroke="#000000" d="M72.23822 56.69362C72.23822 84.17691 58.93321 106.45587 42.5202 106.45587 26.1072 106.45587 12.80219 84.17691 12.80219 56.69362 12.80219 29.21033 26.1072 6.93135 42.5202 6.93135 58.93321 6.93135 72.23822 29.21033 72.23822 56.69362ZM42.5202 56.69362"/>
<use data-text="A" xlink:href="#font_2_1" transform="matrix(9.963397,0,0,-9.963098,50.863634,36.796045)"/>
<use data-text="7" xlink:href="#font_1_6" transform="matrix(9.963397,0,0,-9.963098,222.13532,69.195659)"/>
<use data-text="4" xlink:href="#font_1_3" transform="matrix(9.963397,0,0,-9.963098,259.77137,40.847238)"/>
<use data-text="6" xlink:href="#font_1_5" transform="matrix(9.963397,0,0,-9.963098,264.65974,83.36936)"/>
<path transform="matrix(1.00008,0,0,-1.00005,45.00116,122.68133)" stroke-width=".3985" stroke-linecap="butt" stroke-miterlimit="10" stroke-linejoin="miter" fill="none" stroke="#000000" d="M248.18993 63.7803C248.18993 85.72845 225.91095 103.52043 198.42766 103.52043 170.94437 103.52043 148.6654 85.72845 148.6654 63.7803 148.6654 41.83215 170.94437 24.04018 198.42766 24.04018 225.91095 24.04018 248.18993 41.83215 248.18993 63.7803ZM198.42766 63.7803"/>
<use data-text="B" xlink:href="#font_2_2" transform="matrix(9.963397,0,0,-9.963098,278.1628,24.182404)"/>
<path transform="matrix(1.00008,0,0,-1.00005,45.00116,122.68133)" d="M44.51276 28.3468C44.51276 29.44728 43.62067 30.33936 42.5202 30.33936 41.41972 30.33936 40.52765 29.44728 40.52765 28.3468 40.52765 27.24634 41.41972 26.35425 42.5202 26.35425 43.62067 26.35425 44.51276 27.24634 44.51276 28.3468ZM42.5202 28.3468"/>
<path transform="matrix(1.00008,0,0,-1.00005,45.00116,122.68133)" d="M58.68617 56.69362C58.68617 57.79408 57.79408 58.68617 56.69362 58.68617 55.59314 58.68617 54.70107 57.79408 54.70107 56.69362 54.70107 55.59314 55.59314 54.70107 56.69362 54.70107 57.79408 54.70107 58.68617 55.59314 58.68617 56.69362ZM56.69362 56.69362"/>
<path transform="matrix(1.00008,0,0,-1.00005,45.00116,122.68133)" d="M30.33936 85.04042C30.33936 86.1409 29.44728 87.03297 28.3468 87.03297 27.24634 87.03297 26.35425 86.1409 26.35425 85.04042 26.35425 83.93996 27.24634 83.04787 28.3468 83.04787 29.44728 83.04787 30.33936 83.93996 30.33936 85.04042ZM28.3468 85.04042"/>
<path transform="matrix(1.00008,0,0,-1.00005,45.00116,122.68133)" d="M172.07341 56.69362C172.07341 57.79408 171.18132 58.68617 170.08086 58.68617 168.98038 58.68617 168.0883 57.79408 168.0883 56.69362 168.0883 55.59314 168.98038 54.70107 170.08086 54.70107 171.18132 54.70107 172.07341 55.59314 172.07341 56.69362ZM170.08086 56.69362"/>
<path transform="matrix(1.00008,0,0,-1.00005,45.00116,122.68133)" d="M228.76703 85.04042C228.76703 86.1409 227.87494 87.03297 226.77448 87.03297 225.674 87.03297 224.78192 86.1409 224.78192 85.04042 224.78192 83.93996 225.674 83.04787 226.77448 83.04787 227.87494 83.04787 228.76703 83.93996 228.76703 85.04042ZM226.77448 85.04042"/>
<path transform="matrix(1.00008,0,0,-1.00005,45.00116,122.68133)" d="M214.59362 42.5202C214.59362 43.62067 213.70153 44.51276 212.60106 44.51276 211.50058 44.51276 210.6085 43.62067 210.6085 42.5202 210.6085 41.41972 211.50058 40.52765 212.60106 40.52765 213.70153 40.52765 214.59362 41.41972 214.59362 42.5202ZM212.60106 42.5202"/>
<path transform="matrix(1.00008,0,0,-1.00005,45.00116,122.68133)" stroke-width=".3985" stroke-linecap="butt" stroke-miterlimit="10" stroke-linejoin="miter" fill="none" stroke="#000000" d=""/>
<path transform="matrix(1.00008,0,0,-1.00005,45.00116,122.68133)" stroke-width=".3985" stroke-linecap="butt" stroke-miterlimit="10" stroke-linejoin="miter" fill="none" stroke="#000000" d="M46.04002 26.48448C110.70572-7.75104 190.67662 16.8549 222.768 77.47047"/>
<path transform="matrix(.46789745,-.88380417,-.88383069,-.46788339,267.787,45.206995)" d="M3.7613 0C3.2994 .1127 1.26901 .75136 0 1.44638V-1.44638C1.26901-.75136 3.2994-.1127 3.7613 0Z"/>
<path transform="matrix(.46789745,-.88380417,-.88383069,-.46788339,267.787,45.206995)" stroke-width=".3985" stroke-linecap="butt" stroke-miterlimit="10" stroke-linejoin="miter" fill="none" stroke="#000000" d="M3.7613 0C3.2994 .1127 1.26901 .75136 0 1.44638V-1.44638C1.26901-.75136 3.2994-.1127 3.7613 0Z"/>
<path transform="matrix(1.00008,0,0,-1.00005,45.00116,122.68133)" stroke-width=".3985" stroke-linecap="butt" stroke-miterlimit="10" stroke-linejoin="miter" fill="none" stroke="#000000" d=""/>
<path transform="matrix(1.00008,0,0,-1.00005,45.00116,122.68133)" stroke-width=".3985" stroke-linecap="butt" stroke-miterlimit="10" stroke-linejoin="miter" fill="none" stroke="#000000" d="M46.04002 25.36932C94.92607-15.99739 168.25685-9.88565 206.66336 35.50214"/>
<path transform="matrix(.6459917,-.76337817,-.76340106,-.64597228,251.68105,87.177417)" d="M3.7613 0C3.2994 .1127 1.26901 .75136 0 1.44638V-1.44638C1.26901-.75136 3.2994-.1127 3.7613 0Z"/>
<path transform="matrix(.6459917,-.76337817,-.76340106,-.64597228,251.68105,87.177417)" stroke-width=".3985" stroke-linecap="butt" stroke-miterlimit="10" stroke-linejoin="miter" fill="none" stroke="#000000" d="M3.7613 0C3.2994 .1127 1.26901 .75136 0 1.44638V-1.44638C1.26901-.75136 3.2994-.1127 3.7613 0Z"/>
<path transform="matrix(1.00008,0,0,-1.00005,45.00116,122.68133)" stroke-width=".3985" stroke-linecap="butt" stroke-miterlimit="10" stroke-linejoin="miter" fill="none" stroke="#000000" d=""/>
<path transform="matrix(1.00008,0,0,-1.00005,45.00116,122.68133)" stroke-width=".3985" stroke-linecap="butt" stroke-miterlimit="10" stroke-linejoin="miter" fill="none" stroke="#000000" d="M60.21187 53.1738C89.53824 23.84743 137.23624 23.84743 163.32204 49.93323"/>
<path transform="matrix(.70715656,-.7071353,-.70715656,-.7071353,208.33626,72.745609)" d="M3.7613 0C3.2994 .1127 1.26901 .75136 0 1.44638V-1.44638C1.26901-.75136 3.2994-.1127 3.7613 0Z"/>
<path transform="matrix(.70715656,-.7071353,-.70715656,-.7071353,208.33626,72.745609)" stroke-width=".3985" stroke-linecap="butt" stroke-miterlimit="10" stroke-linejoin="miter" fill="none" stroke="#000000" d="M3.7613 0C3.2994 .1127 1.26901 .75136 0 1.44638V-1.44638C1.26901-.75136 3.2994-.1127 3.7613 0Z"/>
<path transform="matrix(1.00008,0,0,-1.00005,45.00116,122.68133)" stroke-width=".3985" stroke-linecap="butt" stroke-miterlimit="10" stroke-linejoin="miter" fill="none" stroke="#000000" d=""/>
<path transform="matrix(1.00008,0,0,-1.00005,45.00116,122.68133)" stroke-width=".3985" stroke-linecap="butt" stroke-miterlimit="10" stroke-linejoin="miter" fill="none" stroke="#000000" d="M31.86662 87.38306C76.82547 117.35777 137.7635 105.17229 165.19617 64.02629"/>
<path transform="matrix(.55473437,.83203157,.8320566,-.5547177,210.21054,58.651834)" d="M3.7613 0C3.2994 .1127 1.26901 .75136 0 1.44638V-1.44638C1.26901-.75136 3.2994-.1127 3.7613 0Z"/>
<path transform="matrix(.55473437,.83203157,.8320566,-.5547177,210.21054,58.651834)" stroke-width=".3985" stroke-linecap="butt" stroke-miterlimit="10" stroke-linejoin="miter" fill="none" stroke="#000000" d="M3.7613 0C3.2994 .1127 1.26901 .75136 0 1.44638V-1.44638C1.26901-.75136 3.2994-.1127 3.7613 0Z"/>
<path transform="matrix(1.00008,0,0,-1.00005,45.00116,122.68133)" stroke-width=".3985" stroke-linecap="butt" stroke-miterlimit="10" stroke-linejoin="miter" fill="none" stroke="#f9f9f9" d="M-43.90175-19.51721H294.8324V120.87758H-43.90175Z"/>
</svg>
