<svg xmlns="http://www.w3.org/2000/svg" xmlns:xlink="http://www.w3.org/1999/xlink" xmlns:inkscape="http://www.inkscape.org/namespaces/inkscape" version="1.1" width="341" height="150" viewBox="0 0 341 150">
<defs>
<path id="font_1_1" d="M.7599945 .69506838C.7599945 .69807437 .7579956 .7050781 .7489929 .7050781 .74598696 .7050781 .7449951 .70407107 .73399356 .69306948L.6639862 .61598208C.6549988 .6300049 .60899356 .7050781 .49798585 .7050781 .2749939 .7050781 .049987794 .4837799 .049987794 .25144959 .049987794 .09249878 .16099549-.022460938 .32299806-.022460938 .36698915-.022460938 .4119873-.013473511 .44799806 .0015258789 .49798585 .021530152 .5169983 .042526246 .5349884 .06251526 .5439911 .037521364 .56999209 .0005340576 .5799866 .0005340576 .58499148 .0005340576 .58699038 .0035247803 .58699038 .0045318605 .58898928 .0065307619 .598999 .044525148 .60398867 .06550598L.6230011 .14248657C.6269989 .15948487 .6319885 .1764679 .6359863 .19346619 .6469879 .2384491 .647995 .240448 .7049866 .24145508 .70999148 .24145508 .72099307 .2424469 .72099307 .26145936 .72099307 .26844789 .71598818 .27246095 .70799258 .27246095 .68499758 .27246095 .6259918 .26945497 .6029968 .26945497 .57199099 .26945497 .49398805 .27246095 .46299745 .27246095 .45399476 .27246095 .44198609 .27246095 .44198609 .25245667 .44198609 .24145508 .44999696 .24145508 .47200013 .24145508 .47299195 .24145508 .5019989 .24145508 .5249939 .23945618 .5509949 .2364502 .55599978 .23345948 .55599978 .22045899 .55599978 .2114563 .54499819 .16647339 .5349884 .12948609 .5069885 .01953125 .3769989 .008529663 .34199525 .008529663 .24598694 .008529663 .14099121 .06550598 .14099121 .21846009 .14099121 .24945069 .15098572 .41467286 .2559967 .5448761 .30999757 .6129761 .40699769 .67407229 .5059967 .67407229 .60798647 .67407229 .6669922 .59695437 .6669922 .48077394 .6669922 .44070436 .6639862 .43971253 .6639862 .4296875 .6639862 .41967774 .6749878 .41967774 .67900088 .41967774 .69200137 .41967774 .69200137 .42167665 .69699099 .43971253L.7599945 .69506838Z"/>
<path id="font_2_1" d="M.32798768 .71199038C.33299256 .72299197 .33299256 .72499087 .33299256 .7299957 .33299256 .7409973 .32398988 .75 .31298829 .75 .3039856 .75 .29699708 .7449951 .2899933 .72698977L.114990238 .2679901C.11299133 .2619934 .10998535 .2559967 .10998535 .25 .10998535 .24699402 .10998535 .24499512 .114990238 .23298645L.2899933-.22601319C.2939911-.23701477 .29899598-.25 .31298829-.25 .32398988-.25 .33299256-.24101258 .33299256-.23001099 .33299256-.227005 .33299256-.2250061 .32798768-.21400452L.15098572 .25 .32798768 .71199038Z"/>
<path id="font_1_2" d="M.47099305 .3773346C.47200013 .3833313 .47399903 .38833619 .47399903 .39535523 .47399903 .41236878 .46199037 .42237855 .44499208 .42237855 .43499757 .42237855 .4079895 .41537477 .4039917 .3793335 .38598634 .41636659 .35099793 .4423828 .31098939 .4423828 .19699097 .4423828 .07299805 .30226136 .07299805 .15812683 .07299805 .059020997 .13398743 0 .20599365 0 .2649994 0 .31199647 .04701233 .32199098 .058029176L.32299806 .057022096C.3019867-.031982423 .2899933-.07295227 .2899933-.07495117 .28599549-.08395386 .2519989-.18309021 .1459961-.18309021 .1269989-.18309021 .09399414-.18206787 .06599426-.17297364 .09599304-.16394043 .10699463-.13793946 .10699463-.12094116 .10699463-.10494995 .09599304-.0859375 .068984989-.0859375 .04699707-.0859375 .01499939-.10394287 .01499939-.14395142 .01499939-.18508911 .051986696-.20507813 .147995-.20507813 .272995-.20507813 .34498597-.12693787 .3600006-.06695557L.47099305 .3773346M.34098817 .12809754C.33499146 .10206604 .31199647 .077041629 .2899933 .058029176 .2689972 .040008546 .23799134 .021987915 .20899964 .021987915 .15899658 .021987915 .14399719 .074035648 .14399719 .11407471 .14399719 .16212464 .17298889 .28024293 .19999695 .33128358 .22698975 .38034059 .269989 .42037965 .31199647 .42037965 .37799073 .42037965 .3919983 .33929444 .3919983 .33428956 .3919983 .32928468 .3899994 .3232727 .3889923 .3192749L.34098817 .12809754Z"/>
<path id="font_3_3" d="M.5049896 .18203736H.47099305C.46798707 .16001892 .45799256 .100997928 .44499208 .09098816 .43699647 .084991458 .3600006 .084991458 .34599305 .084991458H.1619873C.2669983 .17803955 .3019867 .20603943 .3619995 .25306703 .43598939 .312088 .5049896 .374115 .5049896 .46914674 .5049896 .5900879 .39898683 .6640625 .2709961 .6640625 .14698792 .6640625 .06298828 .57710269 .06298828 .4851532 .06298828 .43414308 .10598755 .42915345 .115997318 .42915345 .13999939 .42915345 .16899109 .44615174 .16899109 .48214723 .16899109 .5001526 .1619873 .53515627 .10998535 .53515627 .14099121 .6060791 .20899964 .62805178 .2559967 .62805178 .35598756 .62805178 .4079895 .5501404 .4079895 .46914674 .4079895 .38212586 .34599305 .3130951 .31399537 .27708436L.07299805 .038986207C.06298828 .02999878 .06298828 .027999878 .06298828 0H.47499085L.5049896 .18203736Z"/>
<path id="font_2_2" d="M.272995 .23298645C.27799989 .24499512 .27799989 .24699402 .27799989 .25 .27799989 .25299073 .27799989 .25498963 .272995 .2669983L.09799194 .72698977C.09199524 .74398806 .085998538 .75 .07499695 .75 .06399536 .75 .054992677 .7409973 .054992677 .7299957 .054992677 .72698977 .054992677 .72499087 .05999756 .71398928L.23699951 .25 .05999756-.21200562C.054992677-.2230072 .054992677-.2250061 .054992677-.23001099 .054992677-.24101258 .06399536-.25 .07499695-.25 .08799744-.25 .09199524-.2400055 .09599304-.23001099L.272995 .23298645Z"/>
<path id="font_3_4" d="M.272995 .33428956C.35099793 .33428956 .40699769 .2803192 .40699769 .1733551 .40699769 .04940796 .33499146 .012466431 .2769928 .012466431 .23699951 .012466431 .14898682 .0234375 .10699463 .082351688 .1539917 .084350589 .16499329 .11735535 .16499329 .13835144 .16499329 .17034912 .14099121 .19335938 .10998535 .19335938 .08198547 .19335938 .053985597 .17634583 .053985597 .13534546 .053985597 .041412355 .1579895-.01953125 .2789917-.01953125 .41799928-.01953125 .5139923 .07336426 .5139923 .1733551 .5139923 .2513275 .44999696 .32929994 .33999635 .35229493 .44499208 .39024354 .48298646 .4650879 .48298646 .5260773 .48298646 .60505679 .3919983 .6640625 .2809906 .6640625 .16999817 .6640625 .084991458 .61006167 .084991458 .5300751 .084991458 .49606324 .10699463 .47706605 .13699341 .47706605 .16799927 .47706605 .18798828 .5000763 .18798828 .5280762 .18798828 .5570679 .16799927 .57806399 .13699341 .5800781 .17199707 .62405398 .24099732 .63505557 .27799989 .63505557 .32299806 .63505557 .38598634 .6130676 .38598634 .5260773 .38598634 .48406983 .37199403 .43814088 .34599305 .4072113 .31298829 .36927796 .2849884 .3672943 .23498535 .36428834 .20999146 .3623047 .20799256 .3623047 .20298767 .3612976 .20098877 .3612976 .19299317 .3592987 .19299317 .34829713 .19299317 .33428956 .20199585 .33428956 .21899414 .33428956H.272995Z"/>
<path id="font_3_5" d="M.15499878 .5588074C.20599365 .5458069 .23599243 .5458069 .2519989 .5458069 .38398744 .5458069 .46199037 .6358032 .46199037 .6508026 .46199037 .6618042 .45498658 .6648102 .44999696 .6648102 .44799806 .6648102 .44599916 .6648102 .44198609 .6618042 .41799928 .6528015 .36499024 .6328125 .29100038 .6328125 .2630005 .6328125 .20999146 .6348114 .14498902 .6598053 .1349945 .6648102 .1329956 .6648102 .13198853 .6648102 .11898804 .6648102 .11898804 .6538086 .11898804 .6378021V.34251405C.11898804 .32548524 .11898804 .3134613 .1349945 .3134613 .14399719 .3134613 .14498902 .3154602 .15499878 .32748414 .19799805 .38259889 .25898744 .390625 .2939911 .390625 .35398866 .390625 .3809967 .34251405 .38598634 .33450318 .4039917 .30143739 .4099884 .26335145 .4099884 .20524597 .4099884 .17524719 .4099884 .116256717 .37998963 .07234192 .35499574 .03640747 .31199647 .012466431 .2630005 .012466431 .19799805 .012466431 .1309967 .04838562 .10598755 .11425781 .14399719 .11125183 .16299439 .13624573 .16299439 .16325379 .16299439 .20625305 .12599182 .21424866 .11299133 .21424866 .11099243 .21424866 .06298828 .21424866 .06298828 .1602478 .06298828 .07034302 .14498902-.01953125 .2649994-.01953125 .3929901-.01953125 .5049896 .07533264 .5049896 .20124817 .5049896 .31445313 .4189911 .41862489 .29499818 .41862489 .25099183 .41862489 .19898987 .4076233 .15499878 .36956788V.5588074Z"/>
<path id="font_3_6" d="M.1499939 .3274536C.1499939 .40945436 .15699768 .48303224 .19499207 .543869 .22898865 .5978699 .2829895 .63505557 .34700013 .63505557 .3769989 .63505557 .4169922 .62701418 .43699647 .5998688 .4119873 .5978699 .3909912 .5808716 .3909912 .5518799 .3909912 .5268707 .4079895 .5048828 .43798829 .5048828 .46798707 .5048828 .48599244 .5248718 .48599244 .5538788 .48599244 .6119385 .44400025 .6640625 .34498597 .6640625 .20098877 .6640625 .053985597 .5318756 .053985597 .3174591 .053985597 .05845642 .17599488-.01953125 .28599549-.01953125 .4079895-.01953125 .5139923 .07345581 .5139923 .20445252 .5139923 .33145143 .41299439 .42546083 .29599 .42546083 .21598816 .42546083 .17199707 .37245179 .1499939 .3274536M.28599549 .012466431C.23599243 .012466431 .19699097 .04145813 .17599488 .08546448 .16099549 .11546326 .15299988 .16545105 .15299988 .22544861 .15299988 .32244874 .21099854 .39746095 .29100038 .39746095 .33699037 .39746095 .36799623 .37945558 .3929901 .342453 .4169922 .30445863 .41799928 .26245118 .41799928 .20445252 .41799928 .14746094 .41799928 .10545349 .3909912 .066467288 .36698915 .031463624 .33499146 .012466431 .28599549 .012466431Z"/>
<path id="font_3_2" d="M.33499146 .63612368C.33499146 .6630554 .33299256 .6640625 .30499269 .6640625 .24099732 .6014404 .1499939 .6004486 .10899353 .6004486V.5644531C.1329956 .5644531 .19898987 .5644531 .2539978 .592453V.08203125C.2539978 .04899597 .2539978 .035995485 .1539917 .035995485H.115997318V0C.13398743 .0009918213 .25698854 .0039978029 .2939911 .0039978029 .32499696 .0039978029 .45098878 .0009918213 .47299195 0V.035995485H.43499757C.33499146 .035995485 .33499146 .04899597 .33499146 .08203125V.63612368Z"/>
<path id="font_3_1" d="M.5159912 .31925965C.5159912 .42918397 .5029907 .50813296 .45700074 .5780945 .42599488 .62405398 .3639984 .6640625 .28399659 .6640625 .051986696 .6640625 .051986696 .39120484 .051986696 .31925965 .051986696 .2472992 .051986696-.01953125 .28399659-.01953125 .5159912-.01953125 .5159912 .2472992 .5159912 .31925965M.28399659 .008468628C.23799134 .008468628 .1769867 .035446168 .15699768 .117385867 .14299011 .17634583 .14299011 .25830079 .14299011 .33224488 .14299011 .40519715 .14299011 .4811554 .1579895 .53611758 .1789856 .6150665 .24299622 .63604739 .28399659 .63604739 .33799745 .63604739 .3899994 .6030731 .4079895 .545105 .42399598 .4911499 .4249878 .41918946 .4249878 .33224488 .4249878 .25830079 .4249878 .18434143 .4119873 .12138367 .3919983 .030441285 .32398988 .008468628 .28399659 .008468628Z"/>
</defs>
<use data-text="G" xlink:href="#font_1_1" transform="matrix(9.963397,0,0,-9.963496,164.5717,18.57124)"/>
<use data-text="&#x27e8;" xlink:href="#font_2_1" transform="matrix(9.963397,0,0,-9.963496,133.86827,56.002607)"/>
<use data-text="g" xlink:href="#font_1_2" transform="matrix(9.963397,0,0,-9.963496,137.74257,56.002607)"/>
<use data-text="2" xlink:href="#font_3_3" transform="matrix(6.974358,0,0,-6.9744279,142.85298,52.386285)"/>
<use data-text="&#x27e9;" xlink:href="#font_2_2" transform="matrix(9.963397,0,0,-9.963496,147.32231,56.002607)"/>
<use data-text="&#x27e8;" xlink:href="#font_2_1" transform="matrix(9.963397,0,0,-9.963496,159.82433,56.002607)"/>
<use data-text="g" xlink:href="#font_1_2" transform="matrix(9.963397,0,0,-9.963496,163.69863,56.002607)"/>
<use data-text="3" xlink:href="#font_3_4" transform="matrix(6.974358,0,0,-6.9744279,168.80904,52.386285)"/>
<use data-text="&#x27e9;" xlink:href="#font_2_2" transform="matrix(9.963397,0,0,-9.963496,173.27837,56.002607)"/>
<use data-text="&#x27e8;" xlink:href="#font_2_1" transform="matrix(9.963397,0,0,-9.963496,187.76656,56.002607)"/>
<use data-text="g" xlink:href="#font_1_2" transform="matrix(9.963397,0,0,-9.963496,191.64089,56.002607)"/>
<use data-text="5" xlink:href="#font_3_5" transform="matrix(6.974358,0,0,-6.9744279,196.75029,52.386285)"/>
<use data-text="&#x27e9;" xlink:href="#font_2_2" transform="matrix(9.963397,0,0,-9.963496,201.22066,56.002607)"/>
<use data-text="&#x27e8;" xlink:href="#font_2_1" transform="matrix(9.963397,0,0,-9.963496,133.86827,95.924198)"/>
<use data-text="g" xlink:href="#font_1_2" transform="matrix(9.963397,0,0,-9.963496,137.74257,95.924198)"/>
<use data-text="6" xlink:href="#font_3_6" transform="matrix(6.974358,0,0,-6.9744279,142.85298,92.308879)"/>
<use data-text="&#x27e9;" xlink:href="#font_2_2" transform="matrix(9.963397,0,0,-9.963496,147.32231,95.924198)"/>
<use data-text="&#x27e8;" xlink:href="#font_2_1" transform="matrix(9.963397,0,0,-9.963496,157.83916,95.924198)"/>
<use data-text="g" xlink:href="#font_1_2" transform="matrix(9.963397,0,0,-9.963496,161.71346,95.924198)"/>
<use data-text="1" xlink:href="#font_3_2" transform="matrix(6.974358,0,0,-6.9744279,166.82387,92.308879)"/>
<use data-text="0" xlink:href="#font_3_1" transform="matrix(6.974358,0,0,-6.9744279,170.79225,92.308879)"/>
<use data-text="&#x27e9;" xlink:href="#font_2_2" transform="matrix(9.963397,0,0,-9.963496,175.26454,95.924198)"/>
<use data-text="&#x27e8;" xlink:href="#font_2_1" transform="matrix(9.963397,0,0,-9.963496,185.78139,95.924198)"/>
<use data-text="g" xlink:href="#font_1_2" transform="matrix(9.963397,0,0,-9.963496,189.65572,95.924198)"/>
<use data-text="1" xlink:href="#font_3_2" transform="matrix(6.974358,0,0,-6.9744279,194.76512,92.308879)"/>
<use data-text="5" xlink:href="#font_3_5" transform="matrix(6.974358,0,0,-6.9744279,198.7335,92.308879)"/>
<use data-text="&#x27e9;" xlink:href="#font_2_2" transform="matrix(9.963397,0,0,-9.963496,203.2068,95.924198)"/>
<use data-text="&#x27e8;" xlink:href="#font_2_1" transform="matrix(9.963397,0,0,-9.963496,157.83916,135.84679)"/>
<use data-text="g" xlink:href="#font_1_2" transform="matrix(9.963397,0,0,-9.963496,161.71346,135.84679)"/>
<use data-text="3" xlink:href="#font_3_4" transform="matrix(6.974358,0,0,-6.9744279,166.82387,132.23146)"/>
<use data-text="0" xlink:href="#font_3_1" transform="matrix(6.974358,0,0,-6.9744279,170.79225,132.23146)"/>
<use data-text="&#x27e9;" xlink:href="#font_2_2" transform="matrix(9.963397,0,0,-9.963496,175.26454,135.84679)"/>
<path transform="matrix(1.00008,0,0,-1.00009,170.47519,75.04932)" stroke-width=".3985" stroke-linecap="butt" stroke-miterlimit="10" stroke-linejoin="miter" fill="none" stroke="#000000" d="M-20.79752 32.3213-8.73328 49.99292"/>
<path transform="matrix(-.56382516,.82592436,.82591608,.56383076,149.67601,42.725088)" stroke-width=".3985" stroke-linecap="round" stroke-miterlimit="10" stroke-linejoin="miter" fill="none" stroke="#000000" d="M0 0H.35864C1.15483 0 1.79321-.79619 1.79321-1.43457 1.79321-2.23076 1.15483-2.86916 .35864-2.86916"/>
<path transform="matrix(.56382516,-.82592436,-.82591608,-.56383076,161.7412,25.051915)" d="M3.58653 0C2.52383 .19925 .797 .797-.3985 1.49438V-1.49438C.797-.797 2.52383-.19925 3.58653 0"/>
<path transform="matrix(1.00008,0,0,-1.00009,170.47519,75.04932)" stroke-width=".3985" stroke-linecap="butt" stroke-miterlimit="10" stroke-linejoin="miter" fill="none" stroke="#000000" d="M-1.98563 32.6683V49.36832"/>
<path transform="matrix(0,1.00009,1.00008,0,168.4894,42.378076)" stroke-width=".3985" stroke-linecap="round" stroke-miterlimit="10" stroke-linejoin="miter" fill="none" stroke="#000000" d="M0 0H.35864C1.15483 0 1.79321-.79619 1.79321-1.43457 1.79321-2.23076 1.15483-2.86916 .35864-2.86916"/>
<path transform="matrix(0,-1.00009,-1.00008,-0,168.4894,25.676552)" d="M3.58653 0C2.52383 .19925 .797 .797-.3985 1.49438V-1.49438C.797-.797 2.52383-.19925 3.58653 0"/>
<path transform="matrix(1.00008,0,0,-1.00009,170.47519,75.04932)" stroke-width=".3985" stroke-linecap="butt" stroke-miterlimit="10" stroke-linejoin="miter" fill="none" stroke="#000000" d="M18.29478 32.28125 5.22533 50.06499"/>
<path transform="matrix(.5922074,.80583259,.80582448,-.5922133,188.77144,42.76514)" stroke-width=".3985" stroke-linecap="round" stroke-miterlimit="10" stroke-linejoin="miter" fill="none" stroke="#000000" d="M0 0H.35864C1.15483 0 1.79321-.79619 1.79321-1.43457 1.79321-2.23076 1.15483-2.86916 .35864-2.86916"/>
<path transform="matrix(-.5922074,-.80583259,-.80582448,.5922133,175.70095,24.97982)" d="M3.58653 0C2.52383 .19925 .797 .797-.3985 1.49438V-1.49438C.797-.797 2.52383-.19925 3.58653 0"/>
<path transform="matrix(1.00008,0,0,-1.00009,170.47519,75.04932)" stroke-width=".3985" stroke-linecap="butt" stroke-miterlimit="10" stroke-linejoin="miter" fill="none" stroke="#000000" d="M-27.94005-7.25076V9.44923"/>
<path transform="matrix(0,1.00009,1.00008,0,142.5329,82.30073)" stroke-width=".3985" stroke-linecap="round" stroke-miterlimit="10" stroke-linejoin="miter" fill="none" stroke="#000000" d="M0 0H.35864C1.15483 0 1.79321-.79619 1.79321-1.43457 1.79321-2.23076 1.15483-2.86916 .35864-2.86916"/>
<path transform="matrix(0,-1.00009,-1.00008,-0,142.5329,65.599239)" d="M3.58653 0C2.52383 .19925 .797 .797-.3985 1.49438V-1.49438C.797-.797 2.52383-.19925 3.58653 0"/>
<path transform="matrix(1.00008,0,0,-1.00009,170.47519,75.04932)" stroke-width=".3985" stroke-linecap="butt" stroke-miterlimit="10" stroke-linejoin="miter" fill="none" stroke="#000000" d="M-8.80559-7.57295-20.25243 10.02917"/>
<path transform="matrix(.5451936,.83837547,.83836707,-.54519906,161.6689,82.62294)" stroke-width=".3985" stroke-linecap="round" stroke-miterlimit="10" stroke-linejoin="miter" fill="none" stroke="#000000" d="M0 0H.35864C1.15483 0 1.79321-.79619 1.79321-1.43457 1.79321-2.23076 1.15483-2.86916 .35864-2.86916"/>
<path transform="matrix(-.5451936,-.83837547,-.83836707,.54519906,150.22115,65.01924)" d="M3.58653 0C2.52383 .19925 .797 .797-.3985 1.49438V-1.49438C.797-.797 2.52383-.19925 3.58653 0"/>
<path transform="matrix(1.00008,0,0,-1.00009,170.47519,75.04932)" stroke-width=".3985" stroke-linecap="butt" stroke-miterlimit="10" stroke-linejoin="miter" fill="none" stroke="#000000" d="M-21.12009-7.57295-9.67323 10.02917"/>
<path transform="matrix(-.5451936,.83837547,.83836707,.54519906,149.35341,82.62294)" stroke-width=".3985" stroke-linecap="round" stroke-miterlimit="10" stroke-linejoin="miter" fill="none" stroke="#000000" d="M0 0H.35864C1.15483 0 1.79321-.79619 1.79321-1.43457 1.79321-2.23076 1.15483-2.86916 .35864-2.86916"/>
<path transform="matrix(.5451936,-.83837547,-.83836707,-.54519906,160.80118,65.01924)" d="M3.58653 0C2.52383 .19925 .797 .797-.3985 1.49438V-1.49438C.797-.797 2.52383-.19925 3.58653 0"/>
<path transform="matrix(1.00008,0,0,-1.00009,170.47519,75.04932)" stroke-width=".3985" stroke-linecap="butt" stroke-miterlimit="10" stroke-linejoin="miter" fill="none" stroke="#000000" d="M18.63925-7.61101 6.24207 10.09769"/>
<path transform="matrix(.5735359,.8192737,.8192655,-.57354167,189.11594,82.661)" stroke-width=".3985" stroke-linecap="round" stroke-miterlimit="10" stroke-linejoin="miter" fill="none" stroke="#000000" d="M0 0H.35864C1.15483 0 1.79321-.79619 1.79321-1.43457 1.79321-2.23076 1.15483-2.86916 .35864-2.86916"/>
<path transform="matrix(-.5735359,-.8192737,-.8192655,.57354167,176.71776,64.950717)" d="M3.58653 0C2.52383 .19925 .797 .797-.3985 1.49438V-1.49438C.797-.797 2.52383-.19925 3.58653 0"/>
<path transform="matrix(1.00008,0,0,-1.00009,170.47519,75.04932)" stroke-width=".3985" stroke-linecap="butt" stroke-miterlimit="10" stroke-linejoin="miter" fill="none" stroke="#000000" d="M5.32951-7.61101 17.7267 10.09769"/>
<path transform="matrix(-.5735359,.8192737,.8192655,.57354167,175.80513,82.661)" stroke-width=".3985" stroke-linecap="round" stroke-miterlimit="10" stroke-linejoin="miter" fill="none" stroke="#000000" d="M0 0H.35864C1.15483 0 1.79321-.79619 1.79321-1.43457 1.79321-2.23076 1.15483-2.86916 .35864-2.86916"/>
<path transform="matrix(.5735359,-.8192737,-.8192655,-.57354167,188.20331,64.950717)" d="M3.58653 0C2.52383 .19925 .797 .797-.3985 1.49438V-1.49438C.797-.797 2.52383-.19925 3.58653 0"/>
<path transform="matrix(1.00008,0,0,-1.00009,170.47519,75.04932)" stroke-width=".3985" stroke-linecap="butt" stroke-miterlimit="10" stroke-linejoin="miter" fill="none" stroke="#000000" d="M25.9544-7.25076V9.44923"/>
<path transform="matrix(0,1.00009,1.00008,0,196.43167,82.30073)" stroke-width=".3985" stroke-linecap="round" stroke-miterlimit="10" stroke-linejoin="miter" fill="none" stroke="#000000" d="M0 0H.35864C1.15483 0 1.79321-.79619 1.79321-1.43457 1.79321-2.23076 1.15483-2.86916 .35864-2.86916"/>
<path transform="matrix(0,-1.00009,-1.00008,-0,196.43167,65.599239)" d="M3.58653 0C2.52383 .19925 .797 .797-.3985 1.49438V-1.49438C.797-.797 2.52383-.19925 3.58653 0"/>
<path transform="matrix(1.00008,0,0,-1.00009,170.47519,75.04932)" stroke-width=".3985" stroke-linecap="butt" stroke-miterlimit="10" stroke-linejoin="miter" fill="none" stroke="#000000" d="M-8.80559-47.49202-20.25243-29.88988"/>
<path transform="matrix(.5451936,.83837547,.83836707,-.54519906,161.6689,122.54559)" stroke-width=".3985" stroke-linecap="round" stroke-miterlimit="10" stroke-linejoin="miter" fill="none" stroke="#000000" d="M0 0H.35864C1.15483 0 1.79321-.79619 1.79321-1.43457 1.79321-2.23076 1.15483-2.86916 .35864-2.86916"/>
<path transform="matrix(-.5451936,-.83837547,-.83836707,.54519906,150.22115,104.94189)" d="M3.58653 0C2.52383 .19925 .797 .797-.3985 1.49438V-1.49438C.797-.797 2.52383-.19925 3.58653 0"/>
<path transform="matrix(1.00008,0,0,-1.00009,170.47519,75.04932)" stroke-width=".3985" stroke-linecap="butt" stroke-miterlimit="10" stroke-linejoin="miter" fill="none" stroke="#000000" d="M-1.98563-47.16983V-30.46982"/>
<path transform="matrix(0,1.00009,1.00008,0,168.4894,122.22339)" stroke-width=".3985" stroke-linecap="round" stroke-miterlimit="10" stroke-linejoin="miter" fill="none" stroke="#000000" d="M0 0H.35864C1.15483 0 1.79321-.79619 1.79321-1.43457 1.79321-2.23076 1.15483-2.86916 .35864-2.86916"/>
<path transform="matrix(0,-1.00009,-1.00008,-0,168.4894,105.52188)" d="M3.58653 0C2.52383 .19925 .797 .797-.3985 1.49438V-1.49438C.797-.797 2.52383-.19925 3.58653 0"/>
<path transform="matrix(1.00008,0,0,-1.00009,170.47519,75.04932)" stroke-width=".3985" stroke-linecap="butt" stroke-miterlimit="10" stroke-linejoin="miter" fill="none" stroke="#000000" d="M5.32951-47.53009 17.7267-29.82137"/>
<path transform="matrix(-.5735359,.8192737,.8192655,.57354167,175.80513,122.58367)" stroke-width=".3985" stroke-linecap="round" stroke-miterlimit="10" stroke-linejoin="miter" fill="none" stroke="#000000" d="M0 0H.35864C1.15483 0 1.79321-.79619 1.79321-1.43457 1.79321-2.23076 1.15483-2.86916 .35864-2.86916"/>
<path transform="matrix(.5735359,-.8192737,-.8192655,-.57354167,188.20331,104.87337)" d="M3.58653 0C2.52383 .19925 .797 .797-.3985 1.49438V-1.49438C.797-.797 2.52383-.19925 3.58653 0"/>
<path transform="matrix(1.00008,0,0,-1.00009,170.47519,75.04932)" stroke-width=".3985" stroke-linecap="butt" stroke-miterlimit="10" stroke-linejoin="miter" fill="none" stroke="#f9f9f9" d="M-169.36707-73.24423H169.36707V73.24425H-169.36707Z"/>
</svg>
